<svg xmlns="http://www.w3.org/2000/svg" width="373.923" height="357.279" viewBox="0 0 373.923 357.279">
    <defs>
        <style>
            .cls-2{fill:black}.cls-3{fill:#f4a428}.cls-4{fill:black}
        </style>
    </defs>
    <g id="Ilustracion-separte" transform="translate(-121.452 -753.721)">
        <path id="Trazado_133" fill="#f8fbff" d="M151.034 49.947c78.679-64.239 139.424 5.68 139.424 83.72s-65.021 141.3-145.229 141.3S0 211.707 0 133.667s72.355-19.481 151.034-83.72z" transform="rotate(-28 1797.742 214.309)"/>
        <g id="nav-staff-messages" transform="translate(197 803.064)">
            <path id="Trazado_247" d="M70.368 33.313c-1.586.39-3.009 2.928-1.952 3.3.747.262.671-1.079 2.3-1.712.946-.372.669-1.838-.348-1.588z" class="cls-2" transform="translate(-11.469 10.807)"/>
            <path id="Trazado_248" d="M71.5 38.448c.544-.6-.053-2.815-1.07-2.14-.73.571.139 3.179 1.07 2.14z" class="cls-2" transform="translate(-10.785 11.747)"/>
            <path id="Trazado_249" d="M59.6 53.378a76.041 76.041 0 0 1 0 9.633c0 .813 1.07.837 1.255 0a56.043 56.043 0 0 0 .385-9.45c2.408-.515 4.345-3.207 5.105-4.871a2.588 2.588 0 0 0 3.51.643c.717-.664.172-1.562-.728-1.241a1.351 1.351 0 0 1-1.626-.8c-.491-.826-1.072-3.964.149-4.549 1.15-.549 2.9.837 3.168-.353a14.99 14.99 0 0 0 .471-7.214c4.121 0 13.483-1.316 14.224-9.493.853-9.429-28.736-2.308-33.456 4.121-4.373 5.943 3.803 21.276 7.543 23.574z" class="cls-2" transform="translate(-17.07 6.858)"/>
            <path id="Trazado_250" d="M76.068 44.362c1.36-.1 1.534-1.275 1.36-2.484a39.338 39.338 0 0 0-2.869-9.778.577.577 0 0 0-1.071.428 99.957 99.957 0 0 1 2.548 10.082c.052.258.075.236-.192.268-1.093.131-2.764-.5-2.649 1.724a8.345 8.345 0 0 0 .1 1.562 4.384 4.384 0 0 1-3.207-.653c-.8-.534-1.339.139-1.135 1.071a4.645 4.645 0 0 0 4.2 3.638c0 1.3-.064 2.751-1.534 3.136a16.476 16.476 0 0 1-5.179-.181c-.6-.11-1.011.767-.407 1.07a5.7 5.7 0 0 0 1.744.535 35.056 35.056 0 0 0 .845 5.447.643.643 0 1 0 1.242-.31c-.258-1.605-.579-3.308-.739-5a7.986 7.986 0 0 0 3.207-.268c2.14-.814 2.29-2.847 2.14-4.817 0-.471 0-1.135-.856-1 0 0-1.606.45-3.019-1.7a5.146 5.146 0 0 0 2.649.385c2.023-.247 1.4-.9 1.4-3.04a5.256 5.256 0 0 1 1.422-.115z" class="cls-2" transform="translate(-12.223 10.311)"/>
            <path id="Trazado_251" d="M33.155 61.473a.889.889 0 1 0 1.534-.9c-1.255-1.938-2.889-2.634-4.281-3.789a15.494 15.494 0 0 1-2.831-3.971c-.738-1.07-1.664-.791-1.156.643 1.357 3.808 3.121 4.237 6.734 8.017z" class="cls-2" transform="translate(-25.032 16.937)"/>
            <path id="Trazado_252" d="M34.629 54.019a36.168 36.168 0 0 1 .364-10.136c.215-1.238-.411-1.457-1.071-.3-1.077 1.889-1.3 8.393-.588 10.616.231.731 1.327.386 1.295-.18z" class="cls-2" transform="translate(-22.873 13.904)"/>
            <path id="Trazado_253" d="M32.617 57.791c-1.617-5.961-1.155-8.337-.611-14.042.064-.674-.872-.65-1.07-.128-1.587 4.162-1.167 10.435.321 14.578a.739.739 0 0 0 1.36-.407z" class="cls-2" transform="translate(-23.847 14.038)"/>
            <path id="Trazado_254" d="M37.372 52.956a41.113 41.113 0 0 1 .685-7.391c.248-1.286-.5-2.054-1.188-.418a21.169 21.169 0 0 0-.909 7.67c.106 1.708 1.395 1.906 1.412.139z" class="cls-2" transform="translate(-21.903 14.356)"/>
            <path id="Trazado_255" d="M41.517 62c.293-4.334-2.146-7-1.23-13.913.106-.8-.7-1.432-1.145 0-1.432 4.588.607 10 1.07 13.805.143 1.183 1.2 1.608 1.305.108z" class="cls-2" transform="translate(-21.018 15.334)"/>
            <path id="Trazado_256" d="M125.3 105.854a19.876 19.876 0 0 1-8.123-4.849c-2.991-3.423-4.476 2.841 7.749 6a.6.6 0 1 0 .374-1.148z" class="cls-2" transform="translate(3.804 32.471)"/>
            <path id="Trazado_257" d="M123.043 107.05a37.607 37.607 0 0 1-7.877-3.532c-.418-.252-1.577.139-.621 1.177a17.333 17.333 0 0 0 8.209 3.521c1.531.023 1.585-.827.289-1.166z" class="cls-2" transform="translate(3.507 33.586)"/>
            <path id="Trazado_258" d="M111.166 100.258c-.311.63.6 1.394 1.071.759 2.606-3.529 7.834-1.07 11.076-3.467a.845.845 0 1 0-.877-1.445c-3.405 1.933-9.269.085-11.27 4.153z" class="cls-2" transform="translate(2.509 31.163)"/>
            <path id="Trazado_259" d="M116.032 96.9c.846-.1 1.236-.575.92-1.07-.457-.722-2.27-.318-3.207-.172-1.843.279-3.591.159-3.649 1-.105 1.428 3.956.467 5.936.242z" class="cls-2" transform="translate(2.181 30.978)"/>
            <path id="Trazado_260" d="M118.614 110.254a107.934 107.934 0 0 1-12.115-5.416c-.523-.271-1.534.085-.547 1.07 1.586 1.573 9.922 5 12.271 5.352.531-.001.977-.79.391-1.006z" class="cls-2" transform="translate(.702 34.01)"/>
            <path id="Trazado_261" d="M121.719 108.622c-3.207-.88-4.741-.968-7.948-2.8-.707-.406-1.436.57-.739 1.07a15.388 15.388 0 0 0 8.562 2.857.593.593 0 0 0 .126-1.123z" class="cls-2" transform="translate(3.044 34.326)"/>
            <path id="Trazado_262" d="M175.333 44.524c0 4.388 2.129 6.055 4.207 9.441.724 1.18 1.8.558 1.626-.258-.485-2.27-3.789-3.329-4.634-9.247a.6.6 0 0 0-1.2.064z" class="cls-2" transform="translate(23.363 14.258)"/>
            <path id="Trazado_263" d="M183.8 46.074c.439-3.7-1.262-9.852-3.04-12.96a.641.641 0 0 0-1.145.577 31.288 31.288 0 0 1 2.537 12.3c-.028 1.314 1.482 1.494 1.648.083z" class="cls-2" transform="translate(24.734 10.643)"/>
            <path id="Trazado_264" d="M188.951 56.506c-1.058-5.7-.107-16.057-1.712-21.137-.223-.707-1.534-1.071-1.262.268 1.452 6.972.211 14.18 1.358 21.009.165 1.016 1.809.909 1.616-.14z" class="cls-2" transform="translate(26.807 11.278)"/>
            <path id="Trazado_265" d="M185.8 46.5c.749-2.2-.632-9.984-1.339-11.976s-2.054-2.092-1.358.643a44.2 44.2 0 0 1 1.297 11.211.739.739 0 0 0 1.4.117z" class="cls-2" transform="translate(25.824 10.735)"/>
            <path id="Trazado_266" d="M177.25 35.406a24.576 24.576 0 0 1 2.092 14.063c-.158 1.07 1.442 1.368 1.594.332a24.162 24.162 0 0 0-2.584-14.986.625.625 0 0 0-1.1.591z" class="cls-2" transform="translate(23.962 11.197)"/>
            <path id="Trazado_267" d="M175.974 33.689c-2.917-5.472-10.319-6.15-15.657-4.388-5.147 1.7-7.13 7.771-7.492 12.747-.335 4.582-.081 11.775 1.284 15.519a8.569 8.569 0 0 0 7.278 6.069V67.4a.654.654 0 0 0 1.3 0c.139-1.255.16-2.525.236-3.789 2.546-.279 6.218-2.344 6.882-5.03a.573.573 0 0 0-1.071-.407c-2.269 4.881-11.591 6.325-13.816-3.478C153.8 47.5 153.107 36 159 31.751c3.135-2.26 12.79-2.928 15.658 2.772a13.578 13.578 0 0 1 .085 9.8 3.122 3.122 0 0 0-3.778 1.8c-.377.662.526 1.329.976.707 3.146-4.37 4.818 4.881 1.551 4.955-.395.01-1.85-.6-1.85.558 0 .6.621 1 1.166 1.135a38.013 38.013 0 0 0 1.5 11.7.657.657 0 1 0 1.262-.364 71.58 71.58 0 0 1-1.455-11.345c3.414-.792 3.125-6.058 1.937-7.983.853-.977 2.398-7.155-.078-11.797z" class="cls-2" transform="translate(16.012 9.233)"/>
            <path id="Trazado_268" d="M164.043 45.8c-.233-1.071-1.187-1.166-1.616-.46a5.175 5.175 0 0 1-4.794 2.258c-.547 0-.767.491-.547 1.071 1.937 5.08 8.314 3.38 6.957-2.869zm-1.188 1.273c.107 3.468-2.7 4.377-4.228 1.937a6.041 6.041 0 0 0 4.228-1.934z" class="cls-2" transform="translate(17.412 14.574)"/>
            <path id="Trazado_269" d="M159.977 43.559c1.07-.074.976-3.167-.289-2.846-1.019.259-.963 2.933.289 2.846z" class="cls-2" transform="translate(18.053 13.211)"/>
            <path id="Trazado_270" d="M155.458 40.737c-1.07.208-1.3 2.769 0 2.708 1.155-.059.973-2.902 0-2.708z" class="cls-2" transform="translate(16.622 13.223)"/>
            <path id="Trazado_271" d="M161.816 37.681c-2.649-.75-3.542 1.627-1.733 1.445a2.486 2.486 0 0 1 2.258.579c1.628 1.486 2.486-1.169-.525-2.024z" class="cls-2" transform="translate(18.104 12.186)"/>
            <path id="Trazado_272" d="M156.28 37.693a2.318 2.318 0 0 0-1.85.931c-.6.674 0 1.445.481.994a1.694 1.694 0 0 1 1.552-.566c.876.075 1.263-1.361-.183-1.359z" class="cls-2" transform="translate(16.495 12.238)"/>
            <path id="Trazado_273" d="M159.676 47.087c.6-.188.77-1.155 0-1.146a10.065 10.065 0 0 1-2.259-.213c.321-1.831 1.019-4.287.547-4.528-.863-.438-1.855 3.7-1.959 4.432-.328 2.278 3.318 1.568 3.671 1.455z" class="cls-2" transform="translate(17.081 13.366)"/>
            <path id="Trazado_274" d="M156.255 154.578c3.95 1.52 10.029 2.3 16.471 2.612-1.534-7.809-3.365-16.77-3.457-24.616-.008-.738 1.061-.962 1.146-.192a191.887 191.887 0 0 0 4.579 24.883 180.4 180.4 0 0 0 21.213-.577c.579-6.721 1.348-29.292 1.777-46.91-12.411 5.073-35.318 4.86-48.707 1.071 1.723 15.11 4.423 32.042 6.978 43.729z" class="cls-2" transform="translate(14.903 35.642)"/>
            <path id="Trazado_275" d="M72.232 135.09a17.315 17.315 0 0 1-4.056.086 226.568 226.568 0 0 1 11.63 28.639c4.741 15.689 8.969 46.118 9.237 51.244 1.52.813 15.925.407 19.468 0 0-3.446 2.107-42.3 1.07-56.476-.558-7.555-3.626-30.62-6.025-47.894-16.128 4.849-37.458 5.063-53.309-1.381 1.23 19.64 3.363 38.145-.579 48.975a305.034 305.034 0 0 1-20.185 40.958c.814 1.018 11.259 7.492 17.243 10.96 17.337-24.4 27.331-38.915 30.6-47.745a176.139 176.139 0 0 0-10.778-27.471 27.722 27.722 0 0 1-5.169-1.381c-.632-.237-.6-1.411.406-1.071A30.678 30.678 0 0 0 72.292 134c.708-.016.85.959-.06 1.09z" class="cls-2" transform="translate(-23.991 35.49)"/>
            <path id="Trazado_276" d="M45.592 187.563a.8.8 0 0 0-1.376.826c.085.139 9.1 14.56 8.269 15.463-1.079 1.17-23.209-12.975-25.12-16.054-1.216-1.961 2.239-4.27 4.549-7.32.549-.725-.388-1.878-1.134-1.231a30.453 30.453 0 0 0-4.453 5.02c-2.958 4.013 1.382 6.593 4.206 8.711a143.124 143.124 0 0 0 16.835 10.778c3.273 1.8 9.064 3.775 6.136-2.484a100.232 100.232 0 0 0-7.912-13.709z" class="cls-2" transform="translate(-25.337 58.136)"/>
            <path id="Trazado_277" d="M108.322 197.311a107.044 107.044 0 0 0-14.587-6.972.944.944 0 1 0-.733 1.74l.036.014c3.817 1.5 7.566 3.191 11.206 5.009 1.652.826 7.491 3.468 2.386 3.6l-29.035.707c-3.361.074-3.347-.45-2.687-3.607a32.233 32.233 0 0 1 2.141-6.336c.363-.82-.94-1.6-1.4-.791a21.849 21.849 0 0 0-2.371 6.415c-1.394 6.728 1.488 6.122 6.774 6.014l27.451-.611c4.329-.115 4.284-2.793.819-5.182z" class="cls-2" transform="translate(-9.886 61.775)"/>
            <path id="Trazado_278" d="M130.05 176.134c28.478 4.358 65.4 7.292 94.321 9.3 1.167.081 1.166-1.733 0-1.813-31.5-2.044-66.074-5.578-94.182-8.937-.771-.084-.963 1.323-.139 1.45z" class="cls-2" transform="translate(8.487 56.715)"/>
            <path id="Trazado_279" d="M215.014 30.6c-.158-7.374-.819-20.545-9.837-22.218-.739-.139-1.068 1.063-.374 1.273 7.87 2.39 8.059 14.191 8.487 21.139a.166.166 0 0 1 0 .074c.717 74.565 3.121 131.855 2.569 204.89-.066 8.562-3.938 16.622-10.21 18.644-.622.2-.513 1.358.268 1.241 8.227-1.235 12.083-12.49 12.072-19.864-.104-68.658-1.423-132.304-2.975-205.179z" class="cls-2" transform="translate(32.808 2.719)"/>
            <path id="Trazado_280" d="M161.046 13.511c-4 .747-3.207 7.809.515 7.406 4.077-.446 3.97-8.243-.515-7.406zm.192 1.724c1.648-.395 2.209 2.983.236 3.746-1.538.594-1.669-3.404-.235-3.747z" class="cls-2" transform="translate(17.861 4.366)"/>
            <path id="Trazado_281" d="M128.61 31.033c29.72-3.347 61-7.887 91.068-11.773 1.262-.163 1.255-2.142 0-1.98-30.219 3.918-63.921 8.078-91.3 12.03-.978.14-.741 1.831.232 1.723z" class="cls-2" transform="translate(7.915 5.607)"/>
            <path id="Trazado_282" d="M231.139 31.334c-.12-15.54.545-29.745-20.068-26.584C188.4 8.225 165 12.7 142.383 15.549 122.872 18 123.94 31.261 124.039 48.213c.124 21.169.279 41.82.545 64.386.01.781 1.394.717 1.381 0-.36-23.257-.1-46.017-.117-68.561-.011-15.042.383-24.385 16.888-26.756 23.059-3.313 46.074-7.222 69.117-10.7 15.155-2.29 17.374 6.561 17.488 20.206.591 69.835 1.99 139.658 2.815 209.491.181 15.38-3.136 22.152-19.553 19.885-23.257-3.207-48.695-4.14-71.236-8.07-13.913-2.425-13.932-12.843-13.914-24.1.043-26.018-.583-54.494-1.07-81.028-.015-.856-1.3-.728-1.3.085.053 26.254.23 55.15.515 81.886.125 11.853 1.07 22.622 15.6 24.947 23.546 3.765 47.519 5.353 71.706 8.134 15.743 1.813 21.475-4.506 21.335-20.805-.599-68.694-2.572-137.286-3.1-205.879z" class="cls-2" transform="translate(6.696 1.398)"/>
            <path id="Trazado_283" d="M211.166 52.513c-2.836-.139-10.606 1.424-13.314 2.023a93.786 93.786 0 0 0 2.665 27.192c.2.662-.933.846-1.156.236-2.21-6.052-3.125-15.145-3.446-21.663a23.675 23.675 0 0 0-7.877-3.068C185.4 58.6 177.731 66.416 174.617 67.5c-1.9-1.36-3.207-2.847-5.02-7.706C157.45 63.3 148.1 81.517 144.039 87s-11.655 11.853-23.427 20.966a44.925 44.925 0 0 1 6.421 12.69 99.815 99.815 0 0 0 28.308-16.632 173.168 173.168 0 0 1 3.5-26.046c.187-.858 1.255-.685 1.071.16-3.008 18.836-3.532 30.288-1.534 49.178 13.026 3.863 36.953 4.044 49.007-1.231.16-7.406.257-13.7.236-17.231-6.014-2.312-12.856-14.88-15.647-20.334-.3-.588.516-1.148.877-.588 3.016 4.653 10.435 17.736 15.658 19.2 4.441 1.244 9.383-2.076 10.327-8.241 1.029-6.627-4.696-41.133-7.67-46.378z" class="cls-3" transform="translate(5.597 17.047)"/>
            <path id="Trazado_284" d="M112.482 89.253c-3.347-5.631-14.706-32.718-30.3-35.083-6.415 3.04-14.908 3.447-17.841-.524-10.829 2.329-16.571 14.186-18.872 23.979-.194.824-1.3.685-1.071-.149a48.4 48.4 0 0 1 2.944-9.708c-.343-1.209-.782-2.857-1.424-5.479-2.231-.611-11.046.2-14.4.909C30.1 86.743 35.8 101.929 39.234 106.5c1.45 1.93 5.352 2.944 8.423 2.649a159.526 159.526 0 0 1 5.256-38.957.5.5 0 0 1 .962.236c-4.422 18.1-5.351 36.256-4.281 54.759 11.2 5.48 34.387 7.31 53.16 1.466-.909-6.527-1.69-12.04-2.141-15.293-10.822-8.367-13.876-10.907-20.057-25.13-.311-.717.568-1.188.932-.482 3.207 6.221 6.4 12.706 11.773 17.275a97.7 97.7 0 0 0 34.793 20.036 33.632 33.632 0 0 1 7.193-14.331c-2.516-1.713-20.494-15.65-22.765-19.475z" class="cls-3" transform="translate(-23.401 17.418)"/>
            <path id="Trazado_285" d="M144.732 148.291c-15.251 0-12.842 29.777.837 30.663 15.56 1.008 13.031-30.663-.837-30.663zm-1.915 7.792c.809-2.3 3.51-2.323 4.281.257.428 1.434.621 6.893-.119 8.358a2.269 2.269 0 0 1-3.885-.181c-.846-1.521-.9-6.656-.277-8.434zm2.846 14.02c.064 1.241 0 2.429.172 3.734s-1.477 1.167-1.673.162a24.01 24.01 0 0 1-.16-4c-4.56-.909-5.069-6.554-4.645-9.846.075-.588 1.188-.674 1.22 0 .159 3.347-.2 7.492 4.174 8.088s4.511-5.424 4.453-8.358c-.022-1.134 1.336-1.07 1.394 0 .19 3.878.236 9.817-4.934 10.224z" class="cls-4" transform="translate(10.03 48.147)"/>
            <path id="Trazado_286" d="M165.417 149.464c-16.054.508-14.166 29.377-.449 30.974 17.32 2.015 15.892-31.461.449-30.974zm.247 20.432c-1 .728-6.678-.258-7.31-1.017-.952-1.146-.964-7.14-.16-7.856s7.575.386 8.015 1.328c.358.763.279 6.972-.566 7.587zm5.982 2.246c-1.188 0-4.066-5.275-4.077-6.025s3.725-5.266 4.741-4.934c.76.3.247 10.97-.685 11z" class="cls-4" transform="translate(16.444 48.526)"/>
            <path id="Trazado_287" d="M186.509 150.8c-15.541-.661-15.981 31.011.63 31.236 15.661.203 16.247-30.519-.63-31.236zm8.851 15.583c.225.728.074 3.319-.856 3.992a7.357 7.357 0 0 1-5.438-.245c-.469-.41-.279-2.633-.247-2.987.185-1.731-5.886-1.584-5.7-.139s.084 2.546-.332 2.827c-.6.4-3.747.577-4.571-.311a6.076 6.076 0 0 1-.289-3.917c2.889-5.286 15.926-4.356 17.456.781z" class="cls-4" transform="translate(23.18 48.957)"/>
            <path id="Trazado_288" d="M109.451 5.394c-.672-.463-1.5.544-.909 1.071 1.453 1.305 8.883 7.855 10.7 8.562a.7.7 0 0 0 .792-1c-1.025-1.576-9.004-7.543-10.583-8.633z" class="cls-3" transform="translate(1.613 1.713)"/>
            <path id="Trazado_289" d="M125.952 9.477c.11-1.068-2.256-7.777-2.7-9.075a.745.745 0 0 0-1.4.279c.013 1.68 1.712 8.134 2.912 9.2a.7.7 0 0 0 1.188-.407z" class="cls-3" transform="translate(5.999)"/>
            <path id="Trazado_290" d="M115.94 21.453c-.92-.5-8.819.321-10.1.664a.739.739 0 0 0 .074 1.422c.9.1 9.13-.1 10.082-.824a.738.738 0 0 0-.053-1.262z" class="cls-3" transform="translate(.636 6.914)"/>
        </g>
    </g>
</svg>
