<svg xmlns="http://www.w3.org/2000/svg" width="373.923" height="357.279" viewBox="0 0 373.923 357.279">
    <defs>
        <style>
            .cls-2,.cls-3,.cls-5{fill-rule:evenodd}.cls-3{fill:#010101}.cls-5{fill:#fff}
            .cls-14, .cls-17, .cls-2, .cls-23, .cls-24, .cls-4, .cls-7 {
                fill: black !important;
                stroke: black;
            }
            .cls-2 {
                stroke-width: 1px !important;
            }
        </style>
    </defs>
    <g id="Grupo_211" transform="translate(-121.452 -753.721)">
        <path id="Trazado_133" fill="#f8fbff" d="M151.034 49.947c78.679-64.239 139.424 5.68 139.424 83.72s-65.021 141.3-145.229 141.3S0 211.707 0 133.667s72.355-19.481 151.034-83.72z" transform="rotate(-28 1797.742 214.309)"/>
        <g id="Office_worker" transform="translate(199 820.939)">
            <path id="Trazado_16" d="M13.009 231.109a9.232 9.232 0 0 1 5.716 8.541v27.008h27.283v-27.19a9.213 9.213 0 0 0-9.209-9.211h-23.79z" class="cls-2" transform="translate(235.983 -31.892)"/>
            <path id="Trazado_17" d="M16.191 235.212c1.573 3 1.135 3.506 1 12.656-.013 1.57-.093 18.664.033 19.148a1.151 1.151 0 0 0 .35.518c.552.393-1.85.267 28.015.267a1.152 1.152 0 0 0 1.128-.964c.02-.249.034-27.468-.013-28.164a10.321 10.321 0 0 0-6.434-8.734c-2.607-1-3.017-.738-16.267-.587-12.445.178-11.486.125-11.781.268a.713.713 0 0 0-.355.637c.011.966.006.8.019.971a.717.717 0 0 0 .428.539l.009-.011a8.421 8.421 0 0 1 3.868 3.456zm8.382-4.227v.178l11.809.137a8.163 8.163 0 0 1 7.9 6.537c.206 1.1.166-1.189.166 27.674h-25c0-26.493.013-27.623-1.022-29.742A10.11 10.11 0 0 0 14 230.98z" class="cls-2" transform="translate(236.398 -31.892)"/>
            <path id="Trazado_18" d="M200.9 93.186l-.419.318c-.2 1.064-.086-.108.382 3.658.388 2.514.622 6.872.654 7.25.5 8.889-.816 18.516-8.916 22.284-2.239.953-2.754.653-3.348 1.267-.362.558-.214.247-.276 3.911 0 4.882-.35 13.6-.337 14.013a.839.839 0 0 0 .765.744 25.281 25.281 0 0 1 3.343.55l.544-.114.313-.444v-.008l-.106-.531-.456-.323c-.9-.216-1.732-.485-2.676-.67 0-.116.958-8.345.958-15.49 4.466-1.176 8.026-4.114 10.28-9.085a26.114 26.114 0 0 0 2.123-8.5 44.331 44.331 0 0 0-.332-11.419 49.033 49.033 0 0 0-1.63-6.884l-.341-.432-.515-.09z" class="cls-2" transform="translate(-97.58 -31.892)"/>
            <path id="Trazado_19" d="M222.64 98.841a7.528 7.528 0 0 0-5.439 6.818 7.668 7.668 0 0 0 .032 1.048 7.454 7.454 0 0 0 1.069 3.132c2.185 3.212 5.263 4.292 9.091 4.864a83.61 83.61 0 0 0 4.384 11.929c-.121 5.577-.03 9.347-.373 16.33-1.013.121-1.976.291-2.966.486-1.215.244-.917.141-1.492.519l-.129.529c.008.011.3.449.3.461a1.627 1.627 0 0 0 1.129.047c4.13-.564 4-.192 4.55-.572.336-.319.336-.14.884-6.618.424-6.291.331-7.291.415-10.95a1.8 1.8 0 0 0-.231-1.265 74.411 74.411 0 0 1-4.379-12.131c-.3-1.262-1.1-.862-3.252-1.309a10.081 10.081 0 0 1-5.31-2.684 5.314 5.314 0 0 1 .838-7.9 7.5 7.5 0 0 1 3.146-1.41 18.138 18.138 0 0 1 2.864-.385l.5-.233.2-.483v-.008l-.216-.48-.5-.222a14.926 14.926 0 0 0-5.115.487zm11.132 26.649l.037.046.013.012-.069-.073zm-.1-.091c.115.1.036.032-.078-.059z" class="cls-2" transform="translate(-156.321 -31.892)"/>
            <path id="Trazado_20" d="M199.112 97.938l-.364.318-.129.555c0 3.829 1.036 4.309.811 11.574-3.192-.027-2.508-.17-3.4.131l-.271.444v.007l.156.5.489.309a33.316 33.316 0 0 0 3.928.844 1.176 1.176 0 0 0 .861-.2 1.23 1.23 0 0 0 .359-.448c.437-1.333.3-8.043-.566-11.2 0-.082-.488-1.28-.488-1.288-.041-.082-.46-.96-.511-1.044l-.4-.409-.47-.085zm1.469 12.446z" class="cls-2" transform="translate(-102.553 -31.892)"/>
            <path id="Trazado_21" d="M203.055 112.4c-.315.481-.392.388-.557 1.921a6 6 0 0 0 1.271 4.273 4.812 4.812 0 0 0 2.708 1.836 4.929 4.929 0 0 0 4.923-1.657 4.753 4.753 0 0 0 .668-1.327c0-.722.1-.44-.239-.978-1.643.4-.479.092-2.1.985a4.837 4.837 0 0 1-1.833.761 2.653 2.653 0 0 1-2.561-1.453 8.943 8.943 0 0 1-1.142-3.537c-.013-.228.027-.07-.207-.713l-.433-.27z" class="cls-2" transform="translate(-119.555 -31.892)"/>
            <path id="Trazado_22" d="M205.181 92.457a6.559 6.559 0 0 0-1.5 1.429 1.926 1.926 0 0 0-.506 1.077l.179.465h.01l.469.143a2.285 2.285 0 0 0 .926-.428 12.171 12.171 0 0 1 1.861-.851 4.175 4.175 0 0 1 3.233-.229 3.209 3.209 0 0 1 .414.2 2.811 2.811 0 0 1 .309.21s.669.349.834.446c.614.314-.109.136 1.367.45.2-.945.339-.96-.124-1.871a2.722 2.722 0 0 0-1.2-1.236 5.173 5.173 0 0 0-.732-.359 6.426 6.426 0 0 0-5.54.554z" class="cls-2" transform="translate(-121.139 -31.892)"/>
            <ellipse id="Elipse_2" cx="2.114" cy="2.763" rx="2.114" ry="2.763" transform="translate(84.981 67.178)"/>
            <path id="Trazado_23" d="M176.615 99.969c-1.483-8.415-2.482-19.545 6.259-24.365 3.468-1.915 7.364-2.417 11.1-3.566C196.6 66.654 202.224 58.257 208 56.7a16.758 16.758 0 0 1 18.054 7c4.964 7.362 3.8 17.977-4.854 21.86-6.73 3.018-16.453 2.05-23.742.617-2.243-.441-4.361 1.384-6.544 2.05-1.147 5.541-4.5 9.319-9.958 10.687-1.556.386-4.341 1.055-4.341 1.055z" class="cls-2" transform="translate(-109.615 -31.892)"/>
            <path id="Trazado_24" d="M207.523 55.551c-6.178 1.659-11.729 9.775-14.623 15.518-4.513 1.248-8.556 1.874-12.108 4.3-7.744 5.557-6.884 15.4-5.14 24.725.114-.02 1.539-.27-.009 0a.725.725 0 0 0 .53.576c.265.047-.088.109 3.376-.687a16.959 16.959 0 0 0 5.7-2.073c3.453-2.161 5.2-5.074 6.226-8.938 1.67-.6 3.352-1.757 4.846-1.832 1.246-.055 18.442 4.735 27.978-2.22 7.75-6 6.838-17.421.972-23.789a17.793 17.793 0 0 0-17.748-5.58zm7.9 2.2C225.93 60.484 230 71.985 226.145 79.2c-3.441 7.261-14.423 7.731-22.429 6.9-6.216-.687-6.241-1.227-8.028-.959-1.942.344-3.308 1.421-5.227 2.126-1.155.358-.4.982-1.865 4.263a12.225 12.225 0 0 1-1.81 2.843c-2.708 3.161-6.1 3.755-9.842 4.695 0-.833-1.938-9.893.774-16.327a11.96 11.96 0 0 1 3.357-4.687c3.418-2.923 8.27-3.515 12.624-4.8 1.431-.433.487-.238 3.5-5.1 2.412-3.743 6.432-9.011 10.7-10.293a14.615 14.615 0 0 1 7.522-.109z" class="cls-3" transform="translate(-109.361 -31.892)"/>
            <path id="Trazado_25" d="M72.795 35.579a48.22 48.22 0 0 0-28.27 32.181 47.964 47.964 0 0 0 6.8 41.558 47.354 47.354 0 0 0 16.784 14.659 48.207 48.207 0 0 0 10.4 4.043 48.91 48.91 0 0 0 38.89-6.176c35.684-23.937 26.387-75.357-10.865-87.48a48.233 48.233 0 0 0-33.739 1.215zm25.82.672A45.079 45.079 0 1 1 53.1 105.2a45.774 45.774 0 0 1-6.073-37.412l.019.006c6.879-22.363 29.579-35.718 51.569-31.543zm-54.084 31.51c.213-.69.194-.636 0 0z" class="cls-3" transform="translate(112.675 -31.892)"/>
            <path id="Trazado_26" d="M105.728 62.364c-.319 2.542-1.326 15.155-1.363 15.688-.1 1.263-.253 3.766-.254 3.774-2.944.221-10.346-.179-14.949-.156-1.276.009-.961-.034-1.6.225l-.23.488v.007l.2.5c.793.38-.111.137 3.693.537 5.258.553 8.886 1.027 13.812.67a1.258 1.258 0 0 0 1.184-.59c.179-.362.14-.248.248-2.114.638-10.974 1.646-15.105 1.354-23.513-.021-.519.035-.277-.23-.915l-.465-.23c-.881.341-.635-.18-1.4 5.629z" class="cls-3" transform="translate(99.793 -31.892)"/>
            <path id="Trazado_27" d="M54.4 80.617a10.2 10.2 0 0 0-1.437.294c-.288.073-.107 0-.783.338l-.253.4c.267.529.1.353.75.758a10.382 10.382 0 0 0 1.562.464 5.777 5.777 0 0 0 1.133.076c3.007.128 2.523.36 3.412.051.45-.148.151.012 1.175-.667-.659-.984-.471-.772-.852-1.068a2.3 2.3 0 0 0-.829-.416 30.048 30.048 0 0 0-3.878-.235z" class="cls-3" transform="translate(183.108 -31.892)"/>
            <path id="Trazado_28" d="M127.327 78.431a3.182 3.182 0 0 0-1.023.12c-.079.019-.474.138-.52.155-.675.24-.336.022-1.294.859.834.882.583.722 1.266.965.991.394 2.181.12 3.933.213a1.21 1.21 0 0 0 .816-.212c.378-.181.083.01 1.082-.711-.684-.958-.531-.784-.843-1.022a1.382 1.382 0 0 0-.926-.377c-.897-.043-1.534-.021-2.491.01z" class="cls-3" transform="translate(38.923 -31.892)"/>
            <path id="Trazado_29" d="M86.965 41.033a5.355 5.355 0 0 0-.512.985 13.734 13.734 0 0 0-.179 1.436c-.241 2.323-.585 3.5.129 5.407l.382.3h.015l.438-.2.373-.558a15.145 15.145 0 0 0 .617-1.757c.1-.451.46-3.731.46-3.846a2.054 2.054 0 0 0-.11-1.142c-.321-.7.137-.113-.834-1.268z" class="cls-3" transform="translate(120.302 -31.892)"/>
            <path id="Trazado_30" d="M92.744 120.734a5.55 5.55 0 0 0 .76-2.582c.369-2.36.318-1.843.138-2.525-.24-.562-.074-.261-.783-1.187a3.729 3.729 0 0 0-1.174 1.1c-.228.334-.176.272-.323 1.206-.334 2.323-.453 2.382-.216 3.593.092.469 0 .257.691 1.251.963-.805.796-.631.907-.856z" class="cls-3" transform="translate(110.198 -31.892)"/>
            <path id="Trazado_31" fill="#f4a428" fill-rule="evenodd" d="M228.866 202.445s.12 8.81.341 12.819c-9.81 1.746-19.481 4.118-29.273 5.96-2.8.526-5.559 1.966-8.387 1.589-15.073-2.016-30.368-2.052-45.557-2.748a4.144 4.144 0 0 1-3.869-4.9c2.054-10.988 4.813-21.785 10.082-31.793 10.32-19.6 30.276-34.527 52.314-38.109a1.755 1.755 0 0 1 1.676.677c4.606 6.064 11.422 12.1 19.016 13.472 4.5.811 12.016.144 14.121-4.774a10.973 10.973 0 0 0 .391-6.384 1.757 1.757 0 0 1 2.179-2.023c12.4 3.369 24.1 8.369 34.564 16.069 3.721 2.738 7.848 5.74 10.851 9.286a9.7 9.7 0 0 0-3.418 8.775c-2.081 2.207-3.127 5.117-1.929 8.039-4.735 7.758 5 14.317 10.855 17.662-5.02 9.709-16.953 27.759-17.146 28.247-.056.142-1.581 31.459-1.631 31.5a.1.1 0 0 1-.078.024c-9.018-.913-18.127.194-27.186.012-13.089-.264-26.625-.792-39.737-.816a.1.1 0 0 1-.023-.2c9.022-2.395 21.563-6.423 28.679-12.173 6.7 2.583 14.751 1.356 21.263-1.325 4.735-1.948 8.327-7.054 1.115-8.693 3.15-2.749 6.636-8.083.53-9.477 3.518-2.917 8.713-10.588.981-11.944.9-5.2 2.21-10.513 3.619-15.61 10.092-.941 9.415-7.448 5.7-9-5.42-2.264-13.268-.906-19.089-.928.52-2.953 1.008-5.932 1.308-8.917.1-1.007.414-2.563-.281-3.441-1.479-1.869-4.836-2.192-6.945-2.8-6.006-1.721-12.638-4.628-19.021-4.017-2.662.255-5.223 2.275-2.754 4.768 1.455 1.468 3.854 1.97 5.756 2.556 1.981.61 3.906 1.4 5.891 2.01 3.067.948 6.185 1.573 9.312 2.289a56.744 56.744 0 0 1-.773 6.881 83.192 83.192 0 0 0-14.6.6 22.409 22.409 0 0 0-6.01 1.1c-2.077.877-2.911 3.412-.59 4.6 2.273 1.156 5.225 1.139 7.753 1.137z" transform="translate(-139.874 -31.892)"/>
            <path id="Trazado_32" d="M244.535 216.785a46.142 46.142 0 0 0-8.387.673c-10.554 1.71-27.528 6.012-30.774 6.71 0-.952.071-.6-.184-1.294l-.479-.247h-.01l-.506.181c-.356.684-.228.312-.345 1.309-.078.987-.215 1.5.465 1.816.278.077.1.084 2.044-.178 11.55-1.616 19.848-4.528 32.078-6.293 1.267-.183 4.795-.861 7.189-1.223.217-.032.093.015.649-.294l.176-.487v-.008l-.24-.459c-.645-.251-.276-.21-1.676-.206z" class="cls-2" transform="translate(-155.235 -31.892)"/>
            <path id="Trazado_33" d="M251.67 223.89c-.411.023-3.272.693-3.952.861a7.956 7.956 0 0 0-2.238.812 3.623 3.623 0 0 0-1.262.834l-.138.474v.008l.35.349.649.136c2.588 0 2.55-.289 6.259-1.051a3.465 3.465 0 0 0 1.727-.676c.319-.2.147-.02.825-.973-.949-.672-.738-.568-1.106-.646a4.391 4.391 0 0 0-1.114-.128z" class="cls-2" transform="translate(-202.97 -31.892)"/>
            <path id="Trazado_34" d="M176.294 222.615c-.344.67-.242.136-.406 2.8a42.575 42.575 0 0 0 .535 8.879 36.09 36.09 0 0 0 10.008 19.551c7.491 7.772 18.208 11.722 28.9 12.244 11.17.5 20.239-2.478 30.479-6.91 6.657-2.892 13.892-6.014 19.32-10.565a34.17 34.17 0 0 0 8.009 1.82c5.842.558 12.068-.306 16.359-4.2h.005l.239-.49-.156-.51c-.014-.009-.473-.238-.488-.245-.586.178-.482.122-.668.278a13.538 13.538 0 0 1-1.75 1.169c-6.266 3.339-14.221 2.349-20.868-.043-2.417-.9-.291.461-10.768 5.972-5.483 2.781-15.761 7.377-23.036 9.433-28.507 7.812-52.568-7.841-54.525-32.948-.3-5.712.251-4.9-.18-6.154l-.488-.249z" class="cls-2" transform="translate(-170.588 -31.892)"/>
            <path id="Trazado_35" d="M189.871 224.607c-.526.317-1.7.86-2.15 1.106-.423.228-.3.176-.733.426a15.624 15.624 0 0 1-5.48 1.914 17.189 17.189 0 0 1-5.421-.155c-1.241-.276-.452-.244-1.446-.234l-.4.333-.005.007v.52a1.692 1.692 0 0 0 .838.728 10.063 10.063 0 0 0 3.546 1.18 16.432 16.432 0 0 0 9.156-2.072 7.031 7.031 0 0 0 2.2-1.653 13.2 13.2 0 0 0 .848-1.038l.188-.539-.133-.462v-.006l-.446-.179z" class="cls-2" transform="translate(-70.248 -31.892)"/>
            <path id="Trazado_36" d="M190.6 236.047c-4.277.679-4.817 1.6-10.377 1a28.156 28.156 0 0 1-3.5-.549l-.581.049-.368.355v.007l.033.515c.394.427.224.379 1.487.984a11.389 11.389 0 0 0 4.136 1.108 19.576 19.576 0 0 0 4.647-.161 9.049 9.049 0 0 0 5.126-2.011l.341-.466.014-.474v-.004l-.368-.3-.572-.052z" class="cls-2" transform="translate(-72.338 -31.892)"/>
            <path id="Trazado_37" d="M177.13 208.542h-.009l-.3.445a1.546 1.546 0 0 0 .323.96 16.783 16.783 0 0 0 8.087 6.25c4.743 1.94 9.71 3.211 14.807 2.675a13.457 13.457 0 0 0 4.932-1.741c.181-.1.086-.012.5-.519v-.512l-.382-.333c-.6-.021-.49-.039-.6-.006a21.134 21.134 0 0 1-4.554.787c-3.962.317-7.809-.04-13.794-2.491a24.932 24.932 0 0 1-6.936-4.089c-1.551-1.581-.725-.989-1.547-1.513z" class="cls-2" transform="translate(-87.291 -31.892)"/>
            <path id="Trazado_38" d="M150.188 190.875h-.009l-.355.4.009.546a64.145 64.145 0 0 1 3.7 29.672 37.738 37.738 0 0 1-2.805 10.473c-3.228 7.378-9.027 11.671-17.077 12.783-10.54 1.455-24.971-3.3-33.773-11.444-1.041-.965-.6-.693-1.321-.994l-.512.2-.212.5.2.52c10.918 11.444 31.547 18.193 45.06 10.544 15.893-9.05 16-37.2 8.037-52.862l-.414-.364z" class="cls-2" transform="translate(40.844 -31.892)"/>
            <path id="Trazado_39" d="M134.952 196.282v.006l-.175.474.179.528a21.709 21.709 0 0 0 2.957 3.137 21.711 21.711 0 0 0 3.611 2.312c.354.179.054.038.829.41 2.757 1.248 2.508.836 2.469 1.191-.912 6.19-1.205 5.551-2.317 12.47-.424 2.963-.4 2.418-.235 3.144l.438.308h.009l.52-.12.327-.466c.892-3.444 2.941-9.032 3.7-16.221.027-1.143-.779-1.207-1.745-1.527a21.145 21.145 0 0 1-2.93-1.252 64.034 64.034 0 0 1-6.47-4.276c-.209-.162-.065-.092-.691-.3z" class="cls-2" transform="translate(12.958 -31.892)"/>
            <path id="Trazado_40" d="M128.379 179.016h-.009l-.217.469.143.558a15.513 15.513 0 0 0 3.754 4.164 30.232 30.232 0 0 0 5.78 3.487 8.305 8.305 0 0 0 3.3.941 2.149 2.149 0 0 0 1.188-.073l.323-.353c0-.011-.076-.465-.078-.476l-.4-.411c-.026-.01-1.584-.917-1.649-.951a38.92 38.92 0 0 1-5.379-2.824c-1.248-.817-4.4-3.261-5.462-4.2-.352-.314-.157-.19-.793-.473z" class="cls-2" transform="translate(24.206 -31.892)"/>
            <path id="Trazado_41" d="M131.039 186.843v.006l-.221.466.134.561a17.494 17.494 0 0 0 3.532 4.259 22.3 22.3 0 0 0 5.637 3.582 7.31 7.31 0 0 0 3.422.775 2.144 2.144 0 0 0 1.207-.2c.008-.011.278-.381.285-.393l-.133-.456-.442-.366c-.4-.155-1.736-.83-2.045-.955a19.038 19.038 0 0 1-5.214-2.791c-.722-.543-4.144-3.446-5.126-4.376l-.529-.243z" class="cls-2" transform="translate(19.147 -31.892)"/>
            <path id="Trazado_42" d="M105.41 170.492v.006l-.171.511.23.514c.607.355 7.119 8.146 17.791 10.817 5.85 1.473 13.348 1.016 16.6-3.965a8.272 8.272 0 0 0 .824-1.7c.04-.117.02 0 0-.611l-.35-.381h-.521c-.451.389-.383.3-.446.411-.114.033-1.291 3.145-7.088 4.36-8.9 1.78-18.758-4.331-25.842-10l-.539-.174z" class="cls-2" transform="translate(49.054 -31.892)"/>
            <path id="Trazado_43" d="M127.205 181.824c5.936-10.983 7.3-15.8 9.151-18.991-1.511-1.8-3.035-3.563-4.675-5.247-6.779.894-13.6 1.578-20.374 2.557-.921 4.856-3.408 9.187-4.7 13.913 3.128 3.2 7.332 4.938 11.533 6.2a26.326 26.326 0 0 0 8.833 1.511" class="cls-2" transform="translate(52.037 -31.892)"/>
            <path id="Trazado_44" d="M131.525 156.433c-7.163.934-12.809 1.5-19.109 2.378-1.5.208-1.528.172-1.916.491-.419.468-.263.522-.621 1.912-1.157 4.468-3.09 7.919-4.256 12.079-.17.6-.243.751-.065 1.237a6.271 6.271 0 0 0 1.364 1.381 20.922 20.922 0 0 0 4.182 2.727 42.993 42.993 0 0 0 13.526 3.844 15.215 15.215 0 0 0 2.4-.013c.546.048.227.082.8-.306.119-.213 3.755-6.327 6.5-12.171.973-2.081 1.466-3.62 2.7-6a3.26 3.26 0 0 0 .451-.91c.121-.771-.276-1.039-.815-1.675-1.514-1.792-2.366-2.731-3.385-3.824-.73-.783-.959-1.193-1.756-1.15zm-.231 2.431c2.049 2.177 3.5 3.933 3.652 4.1-.989 1.706-2.608 6.281-8.156 18.071-4.314.031-11.533-2.515-14.867-4.379a19.043 19.043 0 0 1-4.03-2.928c0-.684 2.962-7.318 4.154-11.6v-.01c.1-.4.128-.513.225-.925.001-.115 18.969-2.385 19.022-2.329z" class="cls-2" transform="translate(52.042 -31.892)"/>
            <path id="Trazado_45" d="M127.041 174.992c.554-.46.329-.092 1.957-2.655.07-.128.483-.788.732-1.3.336-.7 1.269-2.7 1.557-3.42.977-2.255.968-1.992-.078-3.525-.361-.545-.68-.98-.728-1.065a12.745 12.745 0 0 0-1.759-1.689l-.534-.235-.461.081h-.009l-.212.417c.081.721-.041.383.728 2.127a20.632 20.632 0 0 0 1.308 2.047c-1.472 3.649-1.721 3.19-3.326 8.186l-.014.623.307.416h.009z" class="cls-5" transform="translate(36.791 -31.892)"/>
            <path id="Trazado_46" d="M186.182 178.171l-.29.427c0 .883.542.794 4.85 2.024 0 .277 2.754.282 17.657 4.781-.033 1.048-.184 4.6-.184 9.771 0 4.217-.138 3.279.157 4.1l.479.253.507-.186.267-.508c0-.512.857-5.859 1.064-12.466.063-2.042.111-1.9-.06-2.334-.346-.583-.056-.423-5.329-1.977-13.634-3.952-14.116-3.382-14.116-3.554-.117-.015-3.555-.482-4.472-.482z" class="cls-2" transform="translate(-101.639 -31.892)"/>
            <path id="Trazado_47" d="M179.881 198.539c-6.254.087-5.134.145-11.583.145l-.534.2-.244.48v.008l.188.506.507.257c0 .114 6.4.6 11.974.727 19.646.09 20.5 1.186 27.233.533 1.362-.132 2.825-.4 2.943-.415l.479-.279.165-.49v-.011l-.253-.452a1.67 1.67 0 0 0-1.1-.191c-4.808-.032-17.872-1.19-29.775-1.018z" class="cls-2" transform="translate(-83.529 -31.892)"/>
            <path id="Trazado_48" d="M175.183 210.523c-.124-3.67-.5-7.325-.69-10.992 6.627.076 13.25.33 19.872.384a94.03 94.03 0 0 1 10.225.388c-1.147 5.491-2.455 10.874-3.772 16.314-2.22.356-4.343 1.219-6.623 1.166-4.831-.112-10.174-2.128-14.351-4.379A24.731 24.731 0 0 1 175 210.6" class="cls-2" transform="translate(-84.083 -31.892)"/>
            <path id="Trazado_49" d="M173.435 199.061c-.139.367-.136.352.009 1.911.951 10.146 1.088 8.709.779 9.673.245.524.182.468.446.69a21.236 21.236 0 0 0 3.98 2.424 49.515 49.515 0 0 0 5.549 2.761 35.392 35.392 0 0 0 5.559 1.8 16.492 16.492 0 0 0 9.418-.188c2.135-.5 1.98-.3 2.446-.735.229-.306.078.462 1.98-7.638.342-1.43 1.109-4.733 1.741-7.673.348-1.625.51-1.851.134-2.466-.4-.477-.667-.462-1.294-.53-2.008-.207-3.672-.269-5.7-.307-25.958-.403-24.511-.683-25.047.278zm29.689 2.268c-.668 3.275-2.512 10.964-3.321 14.281-3.35.648-3.966 1.347-7.82.9-5.975-.721-11.094-3.551-14.028-4.917a13.652 13.652 0 0 1-2.119-1.2c0-4.4-.181-6.816-.262-9.707 4.09.157 24.591.38 27.55.643z" class="cls-2" transform="translate(-84.024 -31.892)"/>
            <path id="Trazado_50" d="M41.723 161.118a.71.71 0 0 0-.589.7c-.491 47.584-.545 45.579 0 46.12a1.112 1.112 0 0 0 .714.264c2.569.011 48.4.1 48.938-.04a1.174 1.174 0 0 0 .6-.5c.232-.507.151 2.767.151-45.841a1.142 1.142 0 0 0-.937-1.121c-3.968-.355-48.763.408-48.877.418zm47.529 1.846v42.983c-25.2 0 37.863.029-46.3.034-.113.058.093 1.794-.391-43.445 26.556.493 25.6.428 46.691.428z" class="cls-2" transform="translate(162.704 -31.892)"/>
            <path id="Trazado_51" d="M98.976 236.884c-1.021.348-.329-.026-1.29.526l-.221.429v.007l.244.415.562.284c2.817.563.5.343 5.379.473a2.982 2.982 0 0 0 1.658-.182c.656-.3.324-.045 1.23-.915-.862-.9-.561-.653-1.188-.965a2.992 2.992 0 0 0-1.64-.263c-3.668-.093-3.282-.127-4.734.191z" class="cls-2" transform="translate(90.997 -31.892)"/>
            <path id="Trazado_52" d="M76.808 252.525a2.372 2.372 0 0 0-1.152.142 61.437 61.437 0 0 0-7.847 4.725c-2.183 1.481-2.708 1.6-2.561 2.638a1.144 1.144 0 0 0 .414.657c.342.224.4.224 1.083.312 4.257.554 8.449-.308 12.794-.742 8.916-.864 14.516-2.529 21.761-3.578 2.3-.342 2.342-.391 3.431-.615l.456-.318.11-.534c-.007-.012-.305-.443-.313-.455l-.488-.1-.018-.014a89.767 89.767 0 0 0-11.938-1.6c-4.018-.299-12.086-.527-15.732-.518zm.4 2.325c6.591.014 13.386.406 16.953.548 3.516.143 3.208.06 1.921.255-2.3.352-7.146 1.1-10.059 1.488 0 .113-13.417 1.685-16.22 1.713a66.4 66.4 0 0 1 6.429-3.874c.29-.149.121-.132.976-.13zm-.308-.232l-.014.006.018-.015z" class="cls-2" transform="translate(124.478 -31.892)"/>
            <path id="Trazado_53" d="M80.956 239.7a56.662 56.662 0 0 0-7.427.4c-1.363.134-.976.044-1.644.35l-.222.48v.007l.222.48.534.24c.48 0 2.2.279 5.955.372 2.251.059 1.352-.16 9.584.144a16.313 16.313 0 0 0 6.286-.592l.466-.317.156-.47v-.008l-.262-.419c-1.544-.582-12.088-.673-13.648-.667z" class="cls-2" transform="translate(128.471 -31.892)"/>
            <path id="Trazado_54" d="M58.419 248.494c-.684.022-1.249.15-3.583.213-3.446.074-4.409-.145-6.406-.06-3.22.149-2.7.1-3.4.367l-.262.449v.008l.2.481.534.292a31.7 31.7 0 0 0 9.151.793c4.156-.086 4.748-.406 6.117-1 .15-.063.052 0 .552-.42l.129-.459c-.007-.012-.277-.374-.285-.385l-.548-.185c-.125-.01-1.924-.107-2.199-.094z" class="cls-2" transform="translate(188.781 -31.892)"/>
            <path id="Trazado_55" d="M5.276 263.91l-.276.5v.008l.267.508.645.222 6.581.481 28.733.417 15.019.2 14.411.172 18.293.171 21.572.2 48.211.452 47.068.442 20.14.189 16.3.153 7.437.041 8.051.024 16.179.01 19.923-.029h.452l.5-.209.218-.495v-.008l-.207-.5-.5-.218-.456-.01-19.918-.408-16.175-.3-8.05-.127-7.443-.1-16.294-.153-20.14-.189-47.064-.441-48.215-.452-21.568-.2-18.293-.172-14.415-.1-15.019-.083-28.734-.122-6.581-.091z" class="cls-2" transform="translate(-5 -31.892)"/>
            <path id="Trazado_56" d="M27.058 237.225c-7.083.134-7.5.142-10.268.718a1.971 1.971 0 0 0-.948.381l-.2.472v.008l.257.444a1.944 1.944 0 0 0 .982.269 29.9 29.9 0 0 0 5.729.138 47.133 47.133 0 0 0 5.419-.2c1.621-.372 1.506-.383 2.03-.7l.2-.418v-.007l-.217-.41-.508-.285a9.4 9.4 0 0 0-2.476-.41z" class="cls-5" transform="translate(249.099 -31.892)"/>
            <path id="Trazado_57" d="M20.933 249.36c-2.3.17-1.7.027-2.5.351l-.253.466v.008l.217.484.543.266c5.642.783 4.37.552 14.874.859a19.405 19.405 0 0 0 4.966-.28l.512-.246.227-.434v-.008l-.191-.451-.492-.285c-.4-.061-.444-.13-1.856-.377a15.832 15.832 0 0 0-3.1-.243c-10.568-.303-9.297-.283-12.947-.11z" class="cls-5" transform="translate(237.301 -31.892)"/>
            <path id="Trazado_58" d="M30.824 260.9c-.6.427-.452.244-.684.786 1 .8.637.6 1.4.8.844.255 1.6.211 4.284.264a1.421 1.421 0 0 0 .662-.07c.822-.336.737-.347 1.467-1.093-.771-.751-.639-.71-1.45-1.073-.331-.106-.129-.074-1.026-.1-2.822-.055-3.018-.176-4.653.486z" class="cls-5" transform="translate(226.907 -31.892)"/>
            <path id="Trazado_59" d="M235.216 194.964c-.943.618-.68.331-1.423 4.2-1.257 6.768-1.988 9.749-2.584 13.548-.737 4.723-.786 4.239-.078 4.792h.009l.52-.1.355-.457c0-.115.019.039.9-2.842 1.554-5.369 1.343-5.284 3.289-15.157.5-2.721.175-1.828 1.243-2.941.212-.214.649-.647.751-.746a5.749 5.749 0 0 1 1.147-.918l.364-.426.027-.5v-.007l-.364-.347-.557-.045a12.342 12.342 0 0 0-3.6 1.951z" class="cls-2" transform="translate(-175.363 -31.892)"/>
            <path id="Trazado_60" d="M117.748 164.079c-3.108.411-1.916.155-3.588.612-1.127.394-.622.112-1.358.6l-.18.424v.007l.225.4.507.254a8.2 8.2 0 0 0 2.929.192c1.544-.177 7.152-.93 8.682-1.269 2.754-.6 2.133-.386 2.827-.775l.189-.468v-.008l-.239-.446a2.111 2.111 0 0 0-1.2-.275c-3.108-.205-3.853.073-8.794.752z" class="cls-5" transform="translate(54.397 -31.892)"/>
            <path id="Trazado_61" d="M160.3 205.6l-.442.211-.248.494c-.522 4.069-.379.868-.466 14.209a76.548 76.548 0 0 0 .392 8.544l.235.544.474.228h.005l.474-.227c.251-.58.242-.184.479-3.389.222-3.116.272-2.776.272-14.933a26.232 26.232 0 0 0-.465-4.99l-.258-.489-.447-.2z" class="cls-2" transform="translate(-25.619 -31.892)"/>
            <circle id="Elipse_3" cx="5.527" cy="5.527" r="5.527" fill="#f4a428" transform="translate(222.678 124.338)"/>
            <path id="Trazado_62" d="M66.236 155.492a6.292 6.292 0 0 0-5.117 9.665 6.69 6.69 0 0 0 11.353.273 6.4 6.4 0 0 0-4.012-9.8 9.988 9.988 0 0 0-2.224-.138zm.64 1.463a4.687 4.687 0 0 1 4.389 4.35c0 5.193-5.894 6.4-8.2 2.576a4.3 4.3 0 0 1-.336-.776 4.905 4.905 0 0 1 4.145-6.161zm-.055-1.443H66.8z" class="cls-2" transform="translate(161.325 -31.892)"/>
            <path id="Trazado_63" d="M88.9 199.282c-4.743.169-6.763-.139-10.988.181-2.49.194-1.991.123-2.589.4l-.211.46v.008l.2.462c.638.314.139.2 2.566.466a77.71 77.71 0 0 0 10.293.331c1.451 7.828 2.954 13.4 7.369 20.27.24.373.1.235.645.626l.524-.059.32-.427c-.072-.667-.021-.479-.216-.866a59.472 59.472 0 0 1-2.611-6.075c-4.567-12.434-3.245-14.626-4.394-15.578a1.276 1.276 0 0 0-.908-.2z" class="cls-2" transform="translate(122.863 -31.892)"/>
            <path id="Trazado_64" d="M49.491 229.267a10.407 10.407 0 0 0-5.748 1.78 10.217 10.217 0 0 0-3.375 3.77c-1.521 3.089-1.193 4.058-1.193 13.622.02 6.121-.033 5.571.161 6a1.122 1.122 0 0 0 1.312.524c.446-.182.246-.155.526-.159 4.184-.036 12.456.152 20.434.706-4.78.876-8.148 1.507-12.135 2.119-8.9 1.334-9.778.746-9.87 1.892h.014c-.1 8.063-.126 7.266-.055 7.561a.809.809 0 0 0 .345.434c.114.056-1.8.435 54.838.435a1.144 1.144 0 0 0 1.128-.945c.014-.2.042-27.345-.018-28.194a10.4 10.4 0 0 0-9.068-9.469c-1.062-.118-37.187-.077-37.296-.076zm6.365 2.287c30.681 0 30.463-.3 32.7.6a8.112 8.112 0 0 1 4.6 4.862c.621 1.583.442 1.321.442 28.654-28.848 0-24.155-.056-52.457.315l-.014.017v-5.852c6.279-.721 5.031-.251 19.781-2.691 3.6-.59 7.319-.855 8.534-1.213a.955.955 0 0 0-.3-1.843c-.116-.006-10.153-1.756-27.624-1.831-.123 0-.05.974-.05-13.07a8.13 8.13 0 0 1 6.12-7.7c1.305-.344 2.072-.248 8.268-.248zm-14.471 23.03l-.009.006.014-.013z" class="cls-2" transform="translate(159.963 -31.892)"/>
            <path id="Trazado_65" d="M184.3 60.308a6.794 6.794 0 0 0-2.063.413c-.439.16-.272.074-.774.477l-.129.454v.007l.277.378c.859.308.358.116 1.492.3a11.653 11.653 0 0 1 4.933 1.447 11.352 11.352 0 0 1 2.519 1.97 22.062 22.062 0 0 1 3.173 3.934l.433.368.506.009h.01l.336-.383a2.032 2.032 0 0 0-.221-1.293 11.28 11.28 0 0 0-2.607-4.235 14.191 14.191 0 0 0-3.007-2.346 10.53 10.53 0 0 0-4.878-1.5z" class="cls-5" transform="translate(-81.371 -31.892)"/>
            <path id="Trazado_66" d="M181.663 77.359a2.694 2.694 0 0 0 .184-.35 9.276 9.276 0 0 0 .323-2.459 1.577 1.577 0 0 0-.193-.341 2.507 2.507 0 0 0-.23-.266c-1.708.094-1.3 0-1.612.312a1.458 1.458 0 0 1-.124.16c-.023.039-.04.063-.065.1a14.335 14.335 0 0 1-.308 1.937 3.607 3.607 0 0 0 .594 2.08c.968-.581.891-.459 1.431-1.173z" class="cls-5" transform="translate(-66.802 -31.892)"/>
            <path id="Trazado_67" d="M159 155.7l-.378.363.019.531.387.4c1.325.644 3.442 1.747 4.573 2.359 3.647 2.06 4.209 2.015 9.427 5.251 4.363 2.7 5.676 4.048 9.7 6.373l.539.12c.015-.007.437-.217.451-.226l.124-.481-.23-.5c0-.116-2.216-2.193-2.671-2.588a82.979 82.979 0 0 0-16.364-9.806c-4.5-1.824-5.015-1.714-5.015-1.828z" class="cls-5" transform="translate(-47.464 -31.892)"/>
        </g>
    </g>
</svg>
