<svg xmlns="http://www.w3.org/2000/svg" width="500.943" height="435.584" viewBox="0 0 500.943 435.584">
    <g>
        <path fill="#f4a428" d="M46.373 199.771c52.9-.484 105.6.126 158.555-.924a2.128 2.128 0 1 1 .292 4.223c-52.363 1.036-106.224 2.23-158.56.843-3.016-.079-3.389-4.113-.287-4.142zm118.9-80.186c8.822 39.289-45.257 61.225-69.869 36.371-11.288-11.408-13.059-29.98-6.918-44.34 9.171-21.445 32.848-27.6 53.4-18.794 11.197 4.801 20.547 14.11 23.387 26.763zm-4.9-4.422a32.785 32.785 0 0 0-19.018-18.814c-23.067-8.079-45.4-3.455-52.078 22.333-3.526 13.613.271 30.1 12.228 38.465 27.472 19.217 73.054-7.466 58.869-41.982zM48.31 81.439c0-1.311-2.13-1.28-2.246-.017-2.873 30.213-1.451 61.867-1.344 92.241.017 4.553 1.608 4.887 4.458 5.073 45.281 2.981 107.456 1.311 152.647-.691 1.632-.073 1.679-2.847 0-2.876-50.487-.945-103.6 2.525-153.278-.454.778-30.464-.077-62.627-.237-93.276zm158.032 94.25c.173 1.346 2.84 1.527 2.812.021-.591-31.73-.318-63.7-1.138-95.328-.114-4.35-.188-3.973-4.907-4.165-48.366-1.883-102.319-.954-150.492 1.821a1.383 1.383 0 1 0 .128 2.764c50.525-.173 101.593-2.214 152.06-.58-1.846 25.134-1.599 70.825 1.536 95.468zm-63.923-48.624c-3.918-2.3-8.883-5.454-13.989-8.542-2.221-1.344-4.678-2.79-6.94-4.026-4.441-2.432-4.787.9-1.608 3.1 4.481 3.1 12.8 7.074 18.542 11.086-6.588 4.061-12.9 8.341-19.609 12.389-.96-8.837-1.4-17.536-2.671-26.4-.226-1.589-2.434-1.125-2.392.383.268 9.813 1.613 19.454 1.948 29.135a1.727 1.727 0 0 0 2.41 1.306c5.773-2.983 19.6-11.188 24.724-15.641a1.7 1.7 0 0 0-.415-2.788zm163.927-24.442c7.229-.465 6.979-5.137-.47-4.617-22.781 1.591-46.1 1.157-68.922.572-10.043-.257-11.041 3.914-.731 4.3 22.281.846 47.934 1.164 70.116-.259zm22.359 79.7a192.315 192.315 0 0 0-.138-22.542c-.105-1.14-2.187-1.3-2.382-.136-.976 5.839.259 16.462.021 22.8-.059 1.368 2.406 1.249 2.493-.123zM49.268 25.022c28.866-.085 243.937-1.473 255.315-1.012 25.026 1.016 26.508 30.341 23.508 30.809-3.2.5-301.327-1.441-304.473-1.693-2.186-.176-3.218-28.02 25.65-28.104zm251.16 15.891a5.5 5.5 0 0 0 6.2 5.507 5.615 5.615 0 1 0-6.2-5.514zm-18.7 3.667a5.629 5.629 0 0 0 7 1.3 5.873 5.873 0 0 0 2.294-6.628 5.683 5.683 0 0 0-6.015-3.657 5.483 5.483 0 0 0-3.282 8.987zm-20.6.345a5.859 5.859 0 0 0 6.7.594c3.671-2.028 3.584-8.145-.606-9.585a6.229 6.229 0 0 0-6.752 2.246 5.27 5.27 0 0 0 .655 6.74zm65.018 16.536c.48 23.972-1.646 47.957-.37 72.1.074 1.415 2.456 1.316 2.434-.055-.385-23.774 2.121-48.382.418-72.1-.105-1.43-2.51-1.354-2.486.05zm-17.3 17.051c-26.871 1.256-53.2-.53-79.962-.534-1.054 0-1.249 1.9-.225 2.347 8.226 3.551 68.122 3.147 80.3 2.23a2.024 2.024 0 0 0-.114-4.044zM42.6 238.082c19.162.1 39.254 1.86 54.516.746 1.382-.1 1.574-2.448.121-2.489-18.067-.518-35.363-1.679-52.457-2.057-11.573-.257-18.011-4.857-19.193-16.937-1.992-20.393-1.209-46.293-1.323-67.077-.131-22.784 2-85.648 1.463-92.02A1.382 1.382 0 0 0 23 57.994c-.758 3.773-1.929 49.819-2.337 85.448-.259 22.573-1.259 53.756 1.107 75.486 1.253 11.524 9.005 19.097 20.83 19.154zm208-3.728c-32.789 2.021-70.506.691-104.333 1.555-1.453.036-1.458 2.524.017 2.563 33.5.893 70.917-.618 104.333-.582 2.011 0 2.012-3.655-.017-3.531zM233.72 121.73c-3.873.917-3.363 3.424.546 3.425 6.191 0 12.878-.691 19.291-.769 4.1-.048 5.856-3.282-.826-3.8a89.225 89.225 0 0 0-19.011 1.142zm105.095 165.012a76.374 76.374 0 0 0-13.062-23.691c-.82-1.09.556-2.764 1.689-1.821a47.6 47.6 0 0 1 14.337 24.712 51.821 51.821 0 0 1 48.974 12.333c1.693-43.849-35.045-73.646-71.613-76.35-5.393 12.525-29.1 17.434-33.528 4.455-18.453 3.667-45.045 16.928-54.585 32.772 12.078-.078 20.473-.1 26.918 1.088 6.149 1.131 10.29 5.5 10.608 10.722a199.89 199.89 0 0 0 3.612 29.851c4.685-12.13 15.745-15.177 25.622-15.4 8.559-.2 29.3 4.125 41.028 1.33zm-7.022-87.933a156.337 156.337 0 0 1 48.786-2.418c15.914 1.669 25.987 3.779 29.745 21.247 5.609 26.068-.23 68-9.212 93.093-7.73 21.592-21.893 19.554-40.788 20.989-1.451.111-1.84 2.614-.245 2.665 17.978.587 33.165-.126 41.408-14.757 12.71-22.561 17.317-72.98 13.589-98.805-2.443-16.911-9.623-25.047-26.871-27.292-17.683-2.3-40.147-2.805-57.193 2.705a1.346 1.346 0 0 0 .781 2.572zm81.171 4.552c11.563 4.18 24.074 8.67 32.475 18.1 18.925 21.247 8.81 56.139 4.09 80.96-5.239 27.567-10.238 55.179-15.453 82.741-1.631 8.62 1.632 11.3 3.165 3.595 5.471-27.507 10.609-55.146 15.866-82.7 4.989-26.154 15.23-60.928-2.137-84.468-8.853-12-23.375-16.647-37.116-20.514-1.472-.4-2.4 1.734-.89 2.284zm-66.849 244.13c-.648 2.684 3.375 3.443 4.042.608 5.97-25.354 14.078-55.5 16.966-80.644 2.289-19.923.656-32.759-21.875-34.893-18.086-1.727-33.051 5.548-36.344 24.563-4.3 24.853-1.727 65.013-.84 91.54a1.256 1.256 0 0 0 2.512.028c.767-26.534-.442-53.837 1.145-80.12 1.087-18 5.4-31.334 26.234-32.388 22.895-1.156 27.465 7.574 25.46 28.9-2.55 27.054-13.081 64.968-17.294 82.4zm111.008-39.645c2.458-4.724 10.679-13.128 15.456-13.157 3.973-.019 1.422 7.792 2.683 12.2 10.264.9 12.157.781 19.039 7.493.879.864 1.938.408 1.185-.846a18.959 18.959 0 0 0-6.431-6.616c3.5-5.263 9.032-8.331 10.689-8.1 3.13.43-.786 11 1.226 19.386 1.359 5.664 3.8 12.24 1.446 18.882-1.829 5.165-4.773 9.867-13.672 12.679-8.17 2.591-23.636.617-30.6-3.247 10.176-6.174 6.478-21.347-9.124-16.36-21.153 6.761-31.806 8.291-54.067 4.55-1.57-.263-1.938 1.475-.3 1.786a103.193 103.193 0 0 0 53.721-2.936c8.445-2.665 14.4 2.627 10.35 8.245-4.1 5.7-15.076 7.8-21.732 8.81-20.107 3.057-41.4.81-50.667-.306-17.234-2.073-8.419-46 36.47-51.994 12.859-1.717 26.064 1.876 33.285 6.649a46.042 46.042 0 0 0-6.25 19c-.093 1.3 1.337 1 1.627-.28a64.983 64.983 0 0 1 5.678-15.833zm-45.039-4.2c-2.615 1.382-4.45 4.811-5.355 7.523a16.1 16.1 0 0 0-.406 9.074c.345 1.4 1.76 1.536 1.758.062a18.4 18.4 0 0 1 1.712-8.063c.434-.928 2.778-4.595 3.71-6.122.979-1.591.154-3.3-1.415-2.475zm13.339-3.109c-3.705 2-5.873 6.433-7.181 10.266a22.537 22.537 0 0 0-.345 12.586c.3 1.334 1.738 1.235 1.824-.086.314-4.837 1.126-11.68 4.635-16.163a39.43 39.43 0 0 0 2.973-4.406c1.009-1.727-.593-2.912-1.9-2.206zm11.326 2.681a23.766 23.766 0 0 0-5.281 7.167 18.656 18.656 0 0 0-1.61 11.276c.264 1.363 1.727 1.6 1.883.1a23.958 23.958 0 0 1 3.8-10.457 31.414 31.414 0 0 1 4.013-4.952c3.855-3.925.786-6.307-2.8-3.137zM490.3 428.31a3.2 3.2 0 0 1 4.182.833c1.073 1.477 2.215.644 1.6-1.181a4.191 4.191 0 0 0-6.818-1.282.986.986 0 0 0 1.035 1.62zm-10.687 3.311c.173 1.28 2.448 3.887 3.887 3.817 1.693-.081 4.066-1.853 3.9-3.546s-8.034-2.157-7.784-.281zm-8.44-3.945a3.814 3.814 0 0 1 4.762-.636c1.408 1.048 2.669-.257 1.467-1.47a4.9 4.9 0 0 0-7.837 1.055c-.746 1.213.795 1.831 1.612 1.04zM170.35 297.863c.579-4.825.864-7.2-4.277-7.447-14.779-.717-25.285 3.014-34.356 10.074-9.915 7.716-17.386 20.074-18.073 32.8a1.216 1.216 0 1 0 2.4.416c2.33-11.953 7.82-22.882 17.6-30.478 10.39-8.067 21.494-10.62 34.3-9.682a56 56 0 0 1-14.9 34.307c-10.38 11.069-19 13.532-32.792 16.655a1.209 1.209 0 0 0 .306 2.373c11.993-.15 26.491-8.31 34.634-16.852a58.16 58.16 0 0 0 15.158-32.166zm103.85 150.89c-4.04-8.861-14.082-20.227-25.016-18.02-6.823 1.382-14.354 8.678-17.693 14.6-1.753 3.109-.964 6.688 2.976 7.184a215.115 215.115 0 0 0 27.465.712c8.911-.105 22.318-.624 30.78-2.861 1.582-.416.8-2.574-.589-2.591-5.953-.119-11.951.548-17.923.976zm-79.967 3.736c10.3.582 24.333.539 34.086-1.866 1.513-.371.838-2.522-.541-2.522-1.416 0-2.831.048-4.244.1-2.216-5.422-4.918-10.938-10.269-13.864-8.606-4.7-17.693 2.087-23.606 8.067-7.648 7.731-3.315 9.64 4.57 10.086zM83.608 330.764a1.33 1.33 0 0 0-.033-2.658c-13.91-.067-27.339-2.289-39.714-8.943C25.7 309.4 14.849 294.74 8.112 275.72c11.161-1.382 29.13-2.246 44.834 2.228 23.77 6.763 33.53 22.96 38.014 45.71.275 1.4 2.662 1.232 2.536-.245-3.95-45.708-44.981-55.16-84.175-50.957-4.331.465-5.224.708-3.5 5.253 4.146 10.957 9.924 21.95 17.894 30.265 14.543 15.173 38.676 25.508 59.9 22.791zm421.158 124.693c-33.72-.864-35.313-.691-69.038-.656s-67.474.24-101.21.285q-100.69.131-201.383.579c-37.643.124-76.059-.454-113.605.91-1.327.048-1.353 2.3-.019 2.342 33.7 1.036 67.5.389 101.2.318q50.612-.107 101.208-.231c67.127-.192 134.256-.518 201.383-.556 37.85-.022 43.6.959 81.437-.209 1.577-.048 1.6-2.74.022-2.781zm-375.075-6.046c3.052-16.279 7.208-39.222 8.291-55.428 3.868-.3 4.318-.713 5.1-4.769a79.933 79.933 0 0 0 1.577-10.091c.3-4.837 1-6.944-4.527-7.065-22.762-.5-50.468-.713-72.964.81a1.192 1.192 0 0 0 .071 2.382c24.517 1.555 50.653-1.5 74.349.589a67.788 67.788 0 0 1-1.727 14.738c-24.342 1.686-47.458 1.446-71.784 1.147a101.862 101.862 0 0 1-3.627-15.479c-.235-1.382-2.577-1.34-2.541.136a53.735 53.735 0 0 0 2.947 15.674c.883 2.645 2.821 3.064 5.643 3.045 21.867-.147 42.678.473 64.642-.929-2.268 21.369-5.752 35.425-8.067 51.729-.8 5.754 1.98 6.911 2.615 3.519zm57.824-110.327c1.283.029 1.8-2.042.428-2.322-8.267-1.684-17.6-2.266-24.574 3.394-8.713 7.07-5.427 21.578-3.878 31.459 2.916 18.611 12.568 58.817 19.925 78.091.61 1.6 3.216.56 2.764-1.012-5.844-20.43-14.46-49.774-19.039-77.433-1.126-6.783-3.6-18.339-.537-24.568 4.476-9.1 16.557-7.787 24.91-7.6zM70.441 399.852c.724 10.466 5.913 39.921 9.754 49.011a1.4 1.4 0 0 0 2.627-.8c-3.973-16.118-6.749-28.156-9.95-48.627-.239-1.541-2.537-1.091-2.431.416zM101.6 299.381a1.209 1.209 0 0 0 2.087-1.209 55.9 55.9 0 0 1-6.01-38.508 53.03 53.03 0 0 1 36.89-39.425 89.852 89.852 0 0 1 2.482 36.083c-3.184 20.82-11.444 31.877-24.539 46.984-.971 1.121.6 2.85 1.8 1.926 8.454-6.519 16.158-18.783 20.255-28.6 7.172-17.172 8.886-38.724 2.8-56.533-1.142-3.341-1.489-3.589-4.778-2.558a56.939 56.939 0 0 0-29 21 54.821 54.821 0 0 0-1.988 60.841zm.506 69.33c.029 1.532 2.645 1.555 2.7.01q.073-2.028.159-4.058c12.109-25.714 24.123-39.742 46.121-57.451 1.036-.836-.288-2.8-1.5-2.192-16.624 8.345-36.606 34.794-44.267 52.027 1.762-37.819 4.864-65.009 14.406-102.884.345-1.382-1.983-2.031-2.437-.65-8.956 27.182-13.56 63.854-14.933 92.492-10.3-23.307-31.321-41.958-54.526-51.773-1.463-.618-2.246 1.653-.838 2.3 25.157 11.475 43.609 32.094 55.1 56.9-.1 5.086-.081 10.168.018 15.279z" transform="translate(-4.996 -23.916)"/>
        <path fill-rule="evenodd" d="M217.578 260.451c-2.246 2.923-4.116 3.253-5.559 7.419a14.017 14.017 0 0 0 .4 9.936 1.192 1.192 0 0 1-2.139 1.05 14.905 14.905 0 0 1-1.347-11.931c.96-3.089 3.987-7.745 7.343-8.447a1.289 1.289 0 0 1 1.3 1.973zm7.74 6.381a1.232 1.232 0 0 0-.795-2c-3.52-.128-6.462 4.695-6.992 7.745a9.77 9.77 0 0 0 4.223 9.846 1.213 1.213 0 0 0 1.508-1.9 8.69 8.69 0 0 1-2.664-7.509c.725-4.142 3.587-5.07 4.72-6.183zm88.414-11.6c-.268-1.587-2.731-1.406-2.722.112.067 10.423-3.455 21.266-21.551 24.852-20.193 4-40.113-.819-57.349-11.617a1.147 1.147 0 0 0-1.346 1.857c16.386 12.631 39.085 16.992 59.283 13.216 15.089-2.821 26.553-11.338 23.684-28.42zm-76.455 30.825c-2.121.2-31.941 1.073-33.974.057s-10.117-26.947-12.076-52.037c-.563-7.222-1.693-10.552-10.5-11.85-7.132-1.052-63.315-.518-68.309 0-4.294.453-7.555 2.137-7.2 10.729.845 20.421 11.625 58.789 17.438 61.9 6.32 3.386 106.872 2.517 114.362 1.012 6.182-1.238 5.056-10.268.259-9.813zm-80.081-27.6c-1.1-4.743-4.574-7.6-8.718-7.445-4.655.173-5.5 5.671-4.572 9.564.943 3.947 3.952 7.447 8.291 7.281 4.408-.174 6.103-4.657 5.003-9.405zm6.814 110.584c-.37-1.382-2.5-.838-2.4.518.235 3.3 2.475 14.683 3.5 20 .207 1.071 2.049.508 2.228-.475.427-2.311-2.482-16.928-3.322-20.046zm14.969-.283c-.691-1.085-2.591-.328-2.116.957 2.128 5.818 4.187 10.191 5.495 16.721.266 1.335 2.418 1 2.368-.4a43 43 0 0 0-5.745-17.277zm31.043 17.08a53.236 53.236 0 0 1-2.936-16.755 1.188 1.188 0 0 0-2.339-.164 36.16 36.16 0 0 0 1.479 15.821c1.638 5.255 5.31 9.706 4.443 15.3a1.318 1.318 0 0 0 2.453.864c2.746-4.847-1.423-10.6-3.1-15.07zm-70.9-16.36a1.187 1.187 0 0 0-2.183.864c.99 4.654 5.17 13.582 2.368 17.773a1.257 1.257 0 0 0 1.361 1.86c5.745-1.862.758-16.992-1.544-20.5zm25.109-24.206c-3.206-12.6-6.909-33.846 3.569-43.875-16.374-.244-30.02-.553-33.4-.556-6.208 0-13.793 1.473-15.691 10.333-2.327 10.86 5.873 35.5 13.883 53.443 5.643.451 24.936.762 31.925-.114a146.95 146.95 0 0 1-.282-19.231zm9.613-43.8c-17.5 11.373-4.894 48.788.354 63.705a285.3 285.3 0 0 0 34.059-.119c-1.289-5.528-1.515-20.542.967-23.7s9.941-2.857 21.074-2.708c.081-12.867-.532-32.229 7.255-38.323-6.934 1.572-37.5 1.492-63.707 1.147zm100.621-57.349c-16.6 6.452-25.3 4.239-42.111 3.455-11.561-.539-27.491 2.506-30.649 15.8a1.209 1.209 0 0 0 2.3.691c5.262-13.717 21.33-14.007 33.684-12.893s26.892 2.125 37.917-4.863a1.237 1.237 0 0 0-1.138-2.187zm-4.362-61.94c-12.909-10.583-16.58-33.883-21.703-44.935-10.176-21.981-32.017-28.837-54.606-23.762-17.605 3.956-17.364 22.8 8.564 20.63 13.833-1.159 20.423-4.636 20.471-4.664 1.555 6.065 8.324 15.342 9.122 13.627 1.954-4.2 6.079-2.429 6.751 1.439.974 5.61-2.088 8.436-5.27 8.312-1.137-.043 4.517 19.645 5.927 23.319.368.962 1.6.8 2.484.827 7.132.214 19.376 1.337 28.265 5.215zm-3.611-75.483c-14.126-11.075-39.014-23.444-57.024-24.5a7.025 7.025 0 0 0-3.475.449c-16.41 4.526-39.717 15.97-52.752 26.812-.8.667-.173 1.822.656 2.073 9.007 2.714 17.629 4.724 25.9 8.186 1.579.66 2.246-1.855.738-2.5a136.338 136.338 0 0 0-23.573-7.4c14.652-9.718 34.356-21.661 51.545-25.232 16.785 1.049 40.821 12.56 54.274 22.724a231.64 231.64 0 0 0-28.989 8.119 1.164 1.164 0 0 0 .708 2.216c11.133-2.966 20.174-6.115 31.486-8.352a1.508 1.508 0 0 0 .506-2.591zM151.85 152.577a35.584 35.584 0 0 1 3.21 14.623c-.142 1.3-1.993 1.239-2.391.155-.627-1.7-.864-3.876-1.425-5.723-.206 3.3-.128 6.593-.309 9.886a1.209 1.209 0 0 1-2.41.152 73.568 73.568 0 0 1-.518-9.793 38.694 38.694 0 0 0-2.152 7.024 1.131 1.131 0 0 1-2.213-.461c.383-3.035 1.866-11.017 3.42-13.848.741-1.353 3.377-4.3 4.8-2.019zm.294-38.348a1.159 1.159 0 0 1 2.246.425 196.955 196.955 0 0 0-2.43 32.877c0 1.62-2.406 1.416-2.467-.143-.358-8.982.556-24.5 2.653-33.148zm45.174-12.762c-.231-1.073-2.09-1.3-2.23-.116-.209 1.781-.345 7.6-.309 9.316a1.273 1.273 0 0 0 2.541.136 68.988 68.988 0 0 0 0-9.336zm25.882-1.632c-6.526-3.593-16.655-3.973-23.508-2.049a1.13 1.13 0 1 0 .679 2.151 37.456 37.456 0 0 1 22.24 2.591 41.276 41.276 0 0 0-.128 9.2 1.248 1.248 0 1 0 2.494-.073c-.124-2.6-.105-5-.045-7.6.055-2.375.377-3.063-1.727-4.225zm-4.892 76.876a29.873 29.873 0 0 0 10.867-8.119c.878-1-.7-2.387-1.679-1.555-4.859 4.122-9.944 9-16.863 8.255-7.369-.789-9.5-8.291-11.038-14.391-.364-1.454-2.631-1.083-2.322.418 1.475 7.16 4.213 15.092 12.427 16.453a15.211 15.211 0 0 0 6.236-.29c.373 2.427-.055 4.773.136 6.835a1.171 1.171 0 0 0 2.315-.071 30.671 30.671 0 0 0-.079-7.535zm3.888-18.289a1.209 1.209 0 0 0-2.37.282c.435 4.318-3.769 5.332-7.039 6.219a1.135 1.135 0 0 0 .556 2.2c4.113-.39 10.076-2.437 8.853-8.694zm-13.078-.725a5.609 5.609 0 0 1-2.691.09c.373-1.3.758-2.591 1.062-3.909a1.135 1.135 0 0 0-2.168-.669c-.446 1.209-.9 2.579-1.237 3.836a2.246 2.246 0 0 0 1.9 3.2 8.291 8.291 0 0 0 4.016-.225 1.242 1.242 0 1 0-.876-2.323zm-9.886-5.331c-.064-.992-.477-2.1-1.622-2.183-1.5-.1-1.878 1.273-1.682 2.472.162.993.91 2.513 2.166 2.365 1.206-.141 1.196-1.751 1.138-2.654zm16.379-5.426a1.824 1.824 0 0 0-2.633-1.111 2.819 2.819 0 0 0 1.833 4.787c1.494-.333 1.373-2.197.8-3.676zm11.427-5.873a12.539 12.539 0 0 0-6.447-.014c-1.532-3.127-4.745-6.507-8.54-5.889-4.232.691-5.294 5.431-5.032 9.055a4.5 4.5 0 0 0-3.472.945c-1.187-2.674-3.052-5.163-6.1-5.659-6.517-1.061-7.721 7.6-6.564 12.309.905 3.655 3.712 7.521 7.946 7 6.362-.788 5.125-10.468 5.312-10.71a2.724 2.724 0 0 1 3.139-1.209c.807 4.5 4.379 9.8 9.62 8.557 5.039-1.2 5.735-7.972 4.557-12.105a26.882 26.882 0 0 1 5.379-.036 1.161 1.161 0 0 0 .2-2.225zm-10.15 11.61c3.646-1.71 2.456-8.54 1.111-11.04-1.068-1.978-3.7-5.035-6.26-3.814-2.227 1.062-2.842 4.286-2.2 7.438 1.05 5.116 3.263 9.328 7.345 7.416zm-15.345-4.977c-.473-2.973-1.992-5.659-4.954-5.735-3.773-.1-4.066 6.333-3.5 8.993.506 2.372 2.387 5.581 5.244 5.369 3.47-.259 3.55-6.5 3.211-8.625z" transform="translate(-4.996 -23.916) translate(72.883 42.358)"/>
    </g>
</svg>
