<svg version="1.1" id="Capa_1" xmlns="http://www.w3.org/2000/svg" xmlns:xlink="http://www.w3.org/1999/xlink" x="0px" y="0px"
	 viewBox="0 0 242.9 129.3" style="enable-background:new 0 0 242.9 129.3;" xml:space="preserve">
<style type="text/css">
	.st0{fill:#F8FBFF;}
	.st1{fill:#FFFFFF;}
	.st2{fill:#F4A428;}
</style>
<g id="EmptyInbox" transform="translate(-47 -53.75)">
	<path id="Trazado_291" class="st0" d="M279.7,69.5c5.6,0.1,10.1,4.7,10.1,10.3c-0.1,5.5-4.5,10-10.1,10.1h-58.2
		c5.6,0.1,10.1,4.7,10.1,10.3c-0.1,5.5-4.5,10-10.1,10.1h32c5.6-0.1,10.2,4.5,10.3,10.1c0.1,5.6-4.5,10.2-10.1,10.3
		c-0.1,0-0.1,0-0.2,0h-14.8c-7.1,0-12.8,4.6-12.8,10.2c0,3.7,2.9,7.1,8.7,10.2c5.6,0.1,10.1,4.7,10.1,10.3
		c-0.1,5.5-4.5,10-10.1,10.1H113.9c-5.6,0.1-10.2-4.5-10.3-10.1s4.5-10.2,10.1-10.3c0.1,0,0.1,0,0.2,0H57.2
		c-5.6,0.1-10.2-4.5-10.3-10.1c-0.1-5.6,4.5-10.2,10.1-10.3c0.1,0,0.1,0,0.2,0h58.2c5.6,0.1,10.2-4.5,10.3-10.1
		c0.1-5.6-4.5-10.2-10.1-10.3c-0.1,0-0.1,0-0.2,0H79c-5.6-0.1-10.1-4.7-10.1-10.3C69,94.4,73.5,90,79,89.9h58.2
		c-5.6,0.1-10.2-4.5-10.3-10.1c-0.1-5.6,4.5-10.2,10.1-10.3c0.1,0,0.1,0,0.2,0L279.7,69.5z M279.7,110.3c5.6,0,10.2,4.6,10.2,10.2
		s-4.6,10.2-10.2,10.2c-5.6,0-10.2-4.6-10.2-10.2C269.6,114.8,274.1,110.3,279.7,110.3L279.7,110.3z"/>
	<path id="Trazado_292" class="st1" d="M150.5,139.8c-1.4,9.5,5.3,18.4,14.8,19.7c9.5,1.4,18.4-5.3,19.7-14.8c0.2-1.6,0.2-3.3,0-4.9
		h42.4v38.8c0,2.4-2,4.4-4.4,4.4H112.5c-2.4,0-4.4-2-4.4-4.4c0,0,0,0,0,0v-38.8L150.5,139.8z"/>
	<path id="Trazado_293" class="st1" d="M186.6,139.4c0.1,10.4-8.3,19-18.8,19c-10.4,0.1-19-8.3-19-18.8c0-0.1,0-0.2,0-0.3
		c0-0.3,0-0.7,0-1h-40.8L122,97.2c0.6-1.8,2.3-3,4.1-3h83.2c1.9,0,3.5,1.2,4.1,3l13.9,41.1h-40.8C186.6,138.7,186.6,139,186.6,139.4
		z"/>
	<path id="Trazado_294" class="st0" d="M183.9,140.8c0,8.1-7.2,16.1-16.1,16.1s-16.1-8-16.1-16.1c0-0.3,0-2,0-2.2h-30.4l11.9-28.9
		c0.6-1.4,2-2.3,3.5-2.3h62.3c1.5,0,2.9,0.9,3.5,2.3l11.9,28.9h-30.4C183.9,138.8,183.9,140.5,183.9,140.8L183.9,140.8z"/>
	<path class="st2" d="M223,181H112.5c-2.1,0-3.8-1.7-3.8-3.8v-38.7l13.9-41c0.5-1.5,2-2.6,3.6-2.6l82.3,0c0.3,0,0.6,0,0.9,0v0
		c1.6,0,3.1,1,3.6,2.6l13.9,41v38.7C226.8,179.3,225.1,181,223,181z M111.2,138.9v38.3c0,0.7,0.6,1.3,1.3,1.3H223
		c0.7,0,1.3-0.6,1.3-1.3v-38.3l-13.8-40.6c-0.2-0.5-0.7-0.9-1.2-0.9h0c-0.3,0-83.2,0-83.2,0c-0.6,0-1,0.4-1.2,0.9L111.2,138.9z"/>
	<path class="st2" d="M167.6,159.5c-4.9,0-9.6-1.9-13.2-5.3c-3.7-3.5-5.8-8.3-5.9-13.4c0-1.2-0.1-1.7-1.5-1.7h-18.5
		c-0.7,0-1.2-0.6-1.2-1.2s0.6-1.2,1.2-1.2H147c2.6,0,4,1.4,4,4.2c0.1,4.4,1.9,8.5,5.1,11.6c3.2,3.1,7.4,4.7,11.9,4.6
		c8.9-0.2,16-7.3,16.2-16.2c0-2.7,1.3-4.1,4-4.1h36.3c0.7,0,1.2,0.6,1.2,1.2s-0.6,1.2-1.2,1.2h-36.3c-1.4,0-1.5,0.5-1.5,1.7
		c-0.2,10.3-8.4,18.5-18.7,18.7C167.9,159.5,167.7,159.5,167.6,159.5z M188.1,80.6c-0.3,0-0.6-0.1-0.8-0.3c-0.5-0.5-0.6-1.2-0.1-1.8
		l16.1-18.1c0.5-0.5,1.2-0.6,1.8-0.1c0.5,0.5,0.6,1.2,0.1,1.8L189,80.2C188.8,80.5,188.4,80.6,188.1,80.6z M144.6,80.6
		c-0.3,0-0.7-0.1-0.9-0.4l-16.1-18.1c-0.5-0.5-0.4-1.3,0.1-1.8c0.5-0.5,1.3-0.4,1.8,0.1l16.1,18.1c0.5,0.5,0.4,1.3-0.1,1.8
		C145.2,80.5,144.9,80.6,144.6,80.6z M166.4,80.6c-0.7,0-1.2-0.6-1.2-1.2V55c0-0.7,0.6-1.2,1.2-1.2s1.2,0.6,1.2,1.2v24.4
		C167.7,80.1,167.1,80.6,166.4,80.6z M122.6,138.8c-0.2,0.3-0.6,0.4-0.9,0.4l-3.3,0c-0.7,0-1.2-0.6-1.2-1.3c0-0.7,0.6-1.2,1.3-1.2
		l3.3,0c0.7,0,1.2,0.6,1.2,1.3C122.9,138.3,122.8,138.5,122.6,138.8z"/>
</g>
</svg>
