<svg xmlns="http://www.w3.org/2000/svg" width="188" height="137" viewBox="0 0 188 137">
    <defs>
        <style>
            .cls-10,.cls-11,.cls-12,.cls-13,.cls-14,.cls-15,.cls-18,.cls-19,.cls-21,.cls-23,.cls-25,.cls-3,.cls-4,.cls-5,.cls-6,.cls-8,.cls-9{fill-rule:evenodd}.cls-14,.cls-17,.cls-2,.cls-23,.cls-24,.cls-4,.cls-7{fill:none;stroke:#45413c;stroke-linecap:round;stroke-linejoin:round}.cls-2{stroke-width:1.96px}.cls-3{fill:#fff}.cls-4,.cls-7{stroke-width:1.222px}.cls-5{fill:#00dba8}.cls-6{fill:#00f5bc}.cls-8{fill:#d18660}.cls-9{fill:#bd704a}.cls-10{fill:#724f3d}.cls-11{fill:#a86c4e}.cls-12{fill:#ffdf3d}.cls-13{fill:#ffef9e}.cls-14,.cls-17{stroke-width:1.232px}.cls-15{fill:#ffb0ca}.cls-18{fill:#ffdcd1}.cls-19{fill:#ffcebf}.cls-21{fill:#00b8f0}.cls-23,.cls-24{stroke-width:1.54px}.cls-25{fill:#ffb59e}
        </style>
    </defs>
    <g id="user-female-add" transform="translate(2)">
        <path id="Trazado_170" fill="#ffe0a3" fill-rule="evenodd" d="M167 75.752A75.5 75.5 0 1 0 22.727 107h137.546A75.634 75.634 0 0 0 167 75.752"/>
        <path id="Línea_6" d="M0 0L164 0" class="cls-2" transform="translate(9 111)"/>
        <path id="Línea_7" d="M0 0L5 0" class="cls-2" transform="translate(0 111)"/>
        <path id="Línea_8" d="M0 0L5 0" class="cls-2" transform="translate(177 111)"/>
        <g id="Grupo_205" transform="translate(131 47)">
            <path id="Trazado_171" d="M18.341 37.552A17.861 17.861 0 0 0 .317 55.248v8.562h36.049v-8.562a17.861 17.861 0 0 0-18.024-17.7" class="cls-3"/>
            <path id="Trazado_172" d="M18.341 37.552A17.861 17.861 0 0 0 .317 55.248v8.562h36.049v-8.562a17.861 17.861 0 0 0-18.025-17.696z" class="cls-4"/>
            <path id="Trazado_173" d="M12.527 38.493A17.734 17.734 0 0 0 .317 55.248v8.562h12.21z" class="cls-5"/>
            <path id="Trazado_174" d="M12.527 44.2v-5.707A17.734 17.734 0 0 0 .317 55.248v5.708A17.734 17.734 0 0 1 12.527 44.2" class="cls-6"/>
            <path id="Línea_9" d="M0 0L0 8.22" class="cls-7" transform="translate(6.713 55.59)"/>
            <path id="Trazado_175" d="M24.156 38.493a17.734 17.734 0 0 1 12.21 16.754v8.563h-12.21z" class="cls-5"/>
            <path id="Trazado_176" d="M24.156 38.493V44.2a17.734 17.734 0 0 1 12.21 16.754v-5.706a17.734 17.734 0 0 0-12.21-16.754" class="cls-6"/>
            <path id="Línea_10" d="M0 0L0 8.22" class="cls-7" transform="translate(29.97 55.59)"/>
            <path id="Trazado_177" d="M12.527 38.493A17.734 17.734 0 0 0 .317 55.248v8.562h12.21zm11.629 0a17.734 17.734 0 0 1 12.21 16.754v8.563h-12.21z" class="cls-4"/>
            <path id="Trazado_178" d="M18.341 43.261a7.571 7.571 0 0 0 6.892-4.368A18.349 18.349 0 0 0 22.411 38v-3.872h-8.14V38a18.349 18.349 0 0 0-2.822.888 7.571 7.571 0 0 0 6.892 4.368" class="cls-8"/>
            <path id="Trazado_179" d="M22.411 38.668v-4.541h-8.14v4.541a7.682 7.682 0 0 0 8.14 0" class="cls-9"/>
            <path id="Trazado_180" d="M18.341 43.261a7.571 7.571 0 0 0 6.892-4.368A18.349 18.349 0 0 0 22.411 38v-3.872h-8.14V38a18.349 18.349 0 0 0-2.822.888 7.571 7.571 0 0 0 6.892 4.373z" class="cls-4"/>
            <path id="Trazado_181" d="M29.97 22.141v-2.855A11.525 11.525 0 0 0 18.341 7.87 11.525 11.525 0 0 0 6.713 19.286v2.854a2.284 2.284 0 1 0 0 4.566c.049 0 .094-.011.143-.015a11.646 11.646 0 0 0 22.971 0c.049 0 .094.015.143.015a2.284 2.284 0 1 0 0-4.566" class="cls-8"/>
            <path id="Trazado_182" d="M29.97 22.141v-2.855A11.525 11.525 0 0 0 18.341 7.87 11.525 11.525 0 0 0 6.713 19.286v2.854a2.284 2.284 0 1 0 0 4.566c.049 0 .094-.011.143-.015a11.646 11.646 0 0 0 22.971 0c.049 0 .094.015.143.015a2.284 2.284 0 1 0 0-4.566z" class="cls-4"/>
            <path id="Trazado_183" d="M13.109 26.992a1.454 1.454 0 1 1-1.454-1.427 1.441 1.441 0 0 1 1.454 1.427m10.466 0a1.454 1.454 0 1 0 1.454-1.427 1.441 1.441 0 0 0-1.454 1.427" class="cls-9"/>
            <path id="Trazado_184" d="M21.83 29.891a5.326 5.326 0 0 1-3.489 1.383 5.326 5.326 0 0 1-3.489-1.383m.581-6.609a1.9 1.9 0 0 0-3.489 0m12.791 0a1.9 1.9 0 0 0-3.489 0" class="cls-4"/>
            <path id="Trazado_185" d="M33.887 17.464a10.126 10.126 0 0 0-2.069-1.434c2.163.089 3.873-.487 4.014-1.449.164-1.123-1.866-2.343-4.537-2.717a11.2 11.2 0 0 0-3.466.108s1.341-.22 2.047-.308c2.676-.334 4.726-1.517 4.58-2.644s-2.433-1.767-5.108-1.433a9.228 9.228 0 0 0-3.257.978c.2-.158.409-.317.612-.5 2.006-1.771 3-3.892 2.229-4.734s-3.025-.091-5.029 1.68a8.261 8.261 0 0 0-2.285 3.053c-.3-.083-.613-.158-.928-.216A10.174 10.174 0 0 0 21.86 6.1c1.245-2.349 1.422-4.678.4-5.2-.973-.5-2.68.816-3.915 2.963C17.106 1.714 15.4.4 14.426.9c-1.026.524-.849 2.853.4 5.2a10.241 10.241 0 0 0 1.172 1.752c-.314.058-.622.132-.928.216a8.243 8.243 0 0 0-2.284-3.053c-2-1.772-4.257-2.524-5.031-1.68S7.976 6.3 9.981 8.069c.2.179.408.339.613.5a9.236 9.236 0 0 0-3.257-.978c-2.677-.334-4.964.307-5.11 1.433s1.906 2.31 4.582 2.644c.809.1 2.047.308 2.047.308a16.363 16.363 0 0 0-3.468-.108c-2.67.378-4.7 1.594-4.536 2.717.141.961 1.85 1.538 4.014 1.449a10.126 10.126 0 0 0-2.066 1.43c-2 1.777-3 3.901-2.219 4.736.616.668 2.161.316 3.771-.742a10.791 10.791 0 0 0-.592 1.04c-1.174 2.386-1.279 4.718-.238 5.212.641.3 1.57-.161 2.462-1.122a2.278 2.278 0 0 1 .729-4.451c1.163 0 1.725.779 1.725 1.941a11.4 11.4 0 0 0 .248-4.851c1.226.4 3.241-1.315 3.241-1.315v-2.735a32.83 32.83 0 0 0 6.415 1.239 32.832 32.832 0 0 0 6.414-1.239v2.739s2.016 1.716 3.244 1.315a11.407 11.407 0 0 0 .247 4.851c0-1.162.563-1.941 1.726-1.941a2.278 2.278 0 0 1 .729 4.451c.892.961 1.82 1.427 2.462 1.122 1.041-.493.935-2.826-.238-5.212a10.791 10.791 0 0 0-.592-1.04c1.611 1.058 3.155 1.41 3.77.742.777-.84-.215-2.964-2.214-4.741" class="cls-10"/>
            <path id="Trazado_186" d="M3.823 16.658a10.512 10.512 0 0 0-1.027.806C.8 19.241-.195 21.365.581 22.2a1.473 1.473 0 0 0 1.361.3 7.05 7.05 0 0 1 2.138-4.46 9.194 9.194 0 0 1 1.9-1.314c-.467.018-1.338-.01-2.154-.068m11.165-8.777a8.545 8.545 0 0 0-2.209-2.867c-2-1.771-4.257-2.524-5.031-1.679-.415.451-.32 1.272.167 2.208.773-.723 3.512-.509 5.313 1.085a8.323 8.323 0 0 0 1.759 1.254m-4.325 1.547a9.463 9.463 0 0 1-1.291-1.388 10.507 10.507 0 0 0-2.037-.453c-2.677-.334-4.964.307-5.11 1.434a1.447 1.447 0 0 0 .673 1.233c.793-.844 3.269-1.529 5.344-1.271a8.489 8.489 0 0 1 2.986.9c-.188-.145-.376-.291-.562-.454m22.2 7.229a10.374 10.374 0 0 1 1.027.806c2 1.778 2.991 3.9 2.214 4.741a1.471 1.471 0 0 1-1.361.3A7.036 7.036 0 0 0 32.6 18.04a9.194 9.194 0 0 0-1.9-1.314c.469.018 1.338-.01 2.154-.068m-5.032-4.685a11.153 11.153 0 0 1 3.448-.113c2.673.354 4.72 1.607 4.556 2.73-.074.507-.6.9-1.381 1.154a3.28 3.28 0 0 1-.064-.338c.151-1.03-1.711-2.144-4.158-2.49a5.281 5.281 0 0 1-2.4-.943m-18.974 0a14.975 14.975 0 0 0-3.448-.113c-2.673.354-4.72 1.607-4.556 2.73.074.507.6.9 1.38 1.154.043-.185.066-.332.065-.338-.151-1.03 1.711-2.144 4.158-2.49a5.281 5.281 0 0 0 2.4-.943M22.257.9c-.973-.5-2.68.816-3.915 2.963C17.106 1.714 15.4.4 14.426.9c-.59.3-.781 1.2-.6 2.352 1-.33 3.436.451 4.518 2.339C19.422 3.7 21.86 2.92 22.859 3.25c.179-1.154-.013-2.05-.6-2.352m-.565 6.984A8.545 8.545 0 0 1 23.9 5.015c2-1.771 4.257-2.524 5.031-1.679.415.451.32 1.272-.167 2.208-.773-.723-3.512-.509-5.313 1.085a8.323 8.323 0 0 1-1.759 1.254m4.327 1.547a9.463 9.463 0 0 0 1.291-1.388 10.507 10.507 0 0 1 2.037-.453c2.677-.334 4.964.307 5.11 1.434a1.444 1.444 0 0 1-.669 1.234c-.793-.844-3.269-1.529-5.344-1.271a8.489 8.489 0 0 0-2.986.9c.188-.145.376-.291.562-.454" class="cls-11"/>
            <path id="Trazado_187" d="M33.887 17.464a10.126 10.126 0 0 0-2.069-1.434c2.163.089 3.873-.487 4.014-1.449.164-1.123-1.866-2.343-4.537-2.717a11.2 11.2 0 0 0-3.466.108s1.341-.22 2.047-.308c2.676-.334 4.726-1.517 4.58-2.644s-2.433-1.767-5.108-1.433a9.228 9.228 0 0 0-3.257.978c.2-.158.409-.317.612-.5 2.006-1.771 3-3.892 2.229-4.734s-3.025-.091-5.029 1.68a8.261 8.261 0 0 0-2.285 3.053c-.3-.083-.613-.158-.928-.216A10.174 10.174 0 0 0 21.86 6.1c1.245-2.349 1.422-4.678.4-5.2-.973-.5-2.68.816-3.915 2.963C17.106 1.714 15.4.4 14.426.9c-1.026.524-.849 2.853.4 5.2a10.241 10.241 0 0 0 1.172 1.752c-.314.058-.622.132-.928.216a8.243 8.243 0 0 0-2.284-3.053c-2-1.772-4.257-2.524-5.031-1.68S7.976 6.3 9.981 8.069c.2.179.408.339.613.5a9.236 9.236 0 0 0-3.257-.978c-2.677-.334-4.964.307-5.11 1.433s1.906 2.31 4.582 2.644c.809.1 2.047.308 2.047.308a16.363 16.363 0 0 0-3.468-.108c-2.67.378-4.7 1.594-4.536 2.717.141.961 1.85 1.538 4.014 1.449a10.126 10.126 0 0 0-2.066 1.43c-2 1.777-3 3.901-2.219 4.736.616.668 2.161.316 3.771-.742a10.791 10.791 0 0 0-.592 1.04c-1.174 2.386-1.279 4.718-.238 5.212.641.3 1.57-.161 2.462-1.122a2.278 2.278 0 0 1 .729-4.451c1.163 0 1.725.779 1.725 1.941a11.4 11.4 0 0 0 .248-4.851c1.226.4 3.241-1.315 3.241-1.315v-2.735a32.83 32.83 0 0 0 6.415 1.239 32.832 32.832 0 0 0 6.414-1.239v2.739s2.016 1.716 3.244 1.315a11.407 11.407 0 0 0 .247 4.851c0-1.162.563-1.941 1.726-1.941a2.278 2.278 0 0 1 .729 4.451c.892.961 1.82 1.427 2.462 1.122 1.041-.493.935-2.826-.238-5.212a10.791 10.791 0 0 0-.592-1.04c1.611 1.058 3.155 1.41 3.77.742.774-.839-.218-2.963-2.217-4.74z" class="cls-4"/>
        </g>
        <g id="Grupo_208" transform="translate(9 40)">
            <g id="Grupo_207">
                <g id="Grupo_206" transform="translate(-7 2.625)">
                    <path id="Trazado_188" d="M45.369 39.681a7.875 7.875 0 0 0 7.875-7.875v-15.75A15.751 15.751 0 0 0 36.446.34c-8.371.542-14.7 7.867-14.7 16.255v15.211a7.875 7.875 0 0 0 7.875 7.875z" class="cls-12"/>
                    <path id="Trazado_189" d="M36.446.34c-8.371.542-14.7 7.867-14.7 16.255v3.938c0-8.388 6.33-15.713 14.7-16.255a15.752 15.752 0 0 1 16.8 15.716v-3.938A15.752 15.752 0 0 0 36.446.34" class="cls-13"/>
                    <path id="Trazado_190" d="M45.369 39.681a7.875 7.875 0 0 0 7.875-7.875v-15.75A15.751 15.751 0 0 0 36.446.34c-8.371.542-14.7 7.867-14.7 16.255v15.211a7.875 7.875 0 0 0 7.875 7.875z" class="cls-14"/>
                    <path id="Trazado_191" d="M37.494 37.318a20.475 20.475 0 0 0-20.475 20.475v5.515c0 10.381-3.686 11.81-7.775 11.81h-3.25v7.088h3.25c5.721 0 15.65-4.766 15.65-14.174H50.1c0 5.99-4.417 7.086-7.777 7.086h-3.25v7.088h3.25c6.465 0 15.652-1.379 15.652-14.176V57.793a20.476 20.476 0 0 0-20.481-20.475" class="cls-15"/>
                    <path id="Trazado_192" fill="#fcd" fill-rule="evenodd" d="M37.494 37.318a20.475 20.475 0 0 0-20.475 20.475v5.514a20.476 20.476 0 0 1 40.951 0v-5.514a20.476 20.476 0 0 0-20.476-20.475"/>
                    <path id="Trazado_193" d="M37.494 37.318a20.475 20.475 0 0 0-20.475 20.475v5.515c0 10.381-3.686 11.81-7.775 11.81h-3.25v7.088h3.25c5.721 0 15.65-4.766 15.65-14.174H50.1c0 5.99-4.417 7.086-7.777 7.086h-3.25v7.088h3.25c6.465 0 15.652-1.379 15.652-14.176V57.793a20.476 20.476 0 0 0-20.481-20.475z" class="cls-14"/>
                    <path id="Línea_11" d="M0 0L0 9.45" class="cls-17" transform="translate(24.895 58.58)"/>
                    <path id="Línea_12" d="M0 0L0 9.45" class="cls-17" transform="translate(50.095 58.58)"/>
                    <path id="Trazado_194" d="M39.07 81.419h-2.363a3.15 3.15 0 0 1 0-6.3h2.363z" class="cls-18"/>
                    <path id="Trazado_195" d="M39.07 81.419h-2.363a3.15 3.15 0 0 1 0-6.3h2.363z" class="cls-14"/>
                    <path id="Trazado_196" d="M5.994 81.419H3.632a3.15 3.15 0 0 1 0-6.3h2.362z" class="cls-18"/>
                    <path id="Trazado_197" d="M5.994 81.419H3.632a3.15 3.15 0 0 1 0-6.3h2.362z" class="cls-14"/>
                    <path id="Línea_13" d="M0 0L0 20.475" class="cls-17" transform="translate(37.494 47.556)"/>
                    <path id="Trazado_198" d="M42.22 38.107l-4.726 9.45-4.724-9.45v-3.938h9.45z" class="cls-18"/>
                    <path id="Trazado_199" d="M32.77 37.937c.119.054.231.113.356.163a12.424 12.424 0 0 0 8.737 0c.125-.05.236-.109.357-.163v-3.768h-9.45z" class="cls-19"/>
                    <path id="Trazado_200" d="M42.22 38.107l-4.726 9.45-4.724-9.45v-3.938h9.45z" class="cls-14"/>
                    <path id="Trazado_201" d="M30.115 45.366a1.313 1.313 0 0 0 2.108-.037l2.349-3.29a1.31 1.31 0 0 0-.017-1.55L32.616 37.9a20.394 20.394 0 0 0-6.192 2.664z" class="cls-15"/>
                    <path id="Trazado_202" d="M30.115 45.366a1.313 1.313 0 0 0 2.108-.037l2.349-3.29a1.31 1.31 0 0 0-.017-1.55L32.616 37.9a20.394 20.394 0 0 0-6.192 2.664z" class="cls-14"/>
                    <path id="Trazado_203" d="M44.873 45.366a1.313 1.313 0 0 1-2.108-.037l-2.349-3.29a1.31 1.31 0 0 1 .017-1.55l1.94-2.587a20.394 20.394 0 0 1 6.192 2.664z" class="cls-15"/>
                    <path id="Trazado_204" d="M44.873 45.366a1.313 1.313 0 0 1-2.108-.037l-2.349-3.29a1.31 1.31 0 0 1 .017-1.55l1.94-2.587a20.394 20.394 0 0 1 6.192 2.664z" class="cls-14"/>
                    <path id="Trazado_205" d="M50.885 19.994v-3.15c0-.369-.028-.731-.055-1.092a14.137 14.137 0 0 1-17.871-3.168c-1.184 3.424-3.994 5.835-7.276 5.835a6.653 6.653 0 0 1-1.572-.189v1.764a2.362 2.362 0 0 0-2.362 2.363v.788a2.362 2.362 0 0 0 2.362 2.362c.073 0 .144-.016.218-.021a13.374 13.374 0 0 0 26.339 0c.074.005.142.021.218.021a2.363 2.363 0 0 0 2.362-2.362v-.788a2.363 2.363 0 0 0-2.362-2.363" class="cls-18"/>
                    <path id="Trazado_206" d="M50.885 19.994v-3.15c0-.369-.028-.731-.055-1.092a14.137 14.137 0 0 1-17.871-3.168c-1.184 3.424-3.994 5.835-7.276 5.835a6.653 6.653 0 0 1-1.572-.189v1.764a2.362 2.362 0 0 0-2.362 2.363v.788a2.362 2.362 0 0 0 2.362 2.362c.073 0 .144-.016.218-.021a13.374 13.374 0 0 0 26.339 0c.074.005.142.021.218.021a2.363 2.363 0 0 0 2.362-2.362v-.788a2.363 2.363 0 0 0-2.363-2.363z" class="cls-14"/>
                    <path id="Trazado_207" d="M31.2 25.506a1.575 1.575 0 1 1-1.575-1.575 1.575 1.575 0 0 1 1.575 1.575m15.75 0a1.575 1.575 0 1 1-1.575-1.575 1.575 1.575 0 0 1 1.575 1.575" class="cls-19"/>
                    <path id="Trazado_208" d="M33.559 28.656a5.709 5.709 0 0 0 7.875 0m3.151-7.087a2.133 2.133 0 0 0-3.937 0m-6.3-.263a2.133 2.133 0 0 0-3.937 0" class="cls-14"/>
                    <path id="Rectángulo_57" fill="#fff" d="M0 0H188V25H0z" transform="translate(-4 69.375)"/>
                </g>
            </g>
        </g>
        <g id="Grupo_209" transform="translate(90 32)">
            <path id="Trazado_209" d="M25.5 48.067A24.422 24.422 0 0 0 .554 72.37v5.356h49.892V72.37A24.422 24.422 0 0 0 25.5 48.067" class="cls-21"/>
            <path id="Trazado_210" fill="#4acfff" fill-rule="evenodd" d="M25.5 48.067A24.422 24.422 0 0 0 .554 72.37v5.356h.088A24.446 24.446 0 0 1 25.5 55.482a24.446 24.446 0 0 1 24.858 22.243h.088V72.37A24.422 24.422 0 0 0 25.5 48.067"/>
            <path id="Trazado_211" d="M25.5 48.067A24.422 24.422 0 0 0 .554 72.37v5.356h49.892V72.37A24.422 24.422 0 0 0 25.5 48.067z" class="cls-23"/>
            <path id="Línea_14" d="M0 7.415L0 0" class="cls-24" transform="translate(9.701 70.31)"/>
            <path id="Línea_15" d="M0 7.415L0 0" class="cls-24" transform="translate(41.299 70.31)"/>
            <path id="Trazado_212" d="M31.477 48.733c-.02-.03-.03-.046-.033-.053a24.72 24.72 0 0 0-5.944-.613 24.743 24.743 0 0 0-5.955.616l-.02.044-1.839 7.913L25.5 77.726l7.815-21.085z" class="cls-3"/>
            <path id="Trazado_213" d="M31.477 48.733c-.02-.03-.03-.046-.033-.053a24.72 24.72 0 0 0-5.944-.613 24.743 24.743 0 0 0-5.955.616l-.02.044-1.839 7.913L25.5 77.726l7.815-21.085z" class="cls-23"/>
            <path id="Trazado_214" d="M25.5 43.944h-5.821v8.742L25.5 56.53l5.821-3.844v-8.742z" class="cls-19"/>
            <path id="Trazado_215" d="M19.679 43.944v4.868a19.252 19.252 0 0 0 11.641 0v-4.868H19.679z" class="cls-25"/>
            <path id="Trazado_216" d="M25.5 43.944h-5.821v8.742L25.5 56.53l5.821-3.844v-8.742z" class="cls-23"/>
            <path id="Trazado_217" fill="#ff6242" fill-rule="evenodd" d="M25.5 57.127l-4.168 15.655 4.168 4.943 4.168-4.943z"/>
            <path id="Trazado_218" d="M25.5 57.127l-4.168 15.655 4.168 4.943 4.168-4.943z" class="cls-23"/>
            <path id="Trazado_219" d="M31.6 61.147l-6.1-4.019-6.1 4.019" class="cls-23"/>
            <path id="Trazado_220" d="M42.13 25.817V21.7a16.631 16.631 0 0 0-33.261 0v4.12a3.3 3.3 0 1 0 0 6.592c.07 0 .135-.016.2-.021a16.631 16.631 0 0 0 32.852 0c.07 0 .135.021.2.021a3.3 3.3 0 1 0 0-6.592" class="cls-19"/>
            <path id="Trazado_221" d="M42.13 25.817V21.7a16.631 16.631 0 0 0-33.261 0v4.12a3.3 3.3 0 1 0 0 6.592c.07 0 .135-.016.2-.021a16.631 16.631 0 0 0 32.852 0c.07 0 .135.021.2.021a3.3 3.3 0 1 0 0-6.592z" class="cls-23"/>
            <path id="Trazado_222" d="M18.016 32.008a2.079 2.079 0 1 1-2.079-2.06 2.07 2.07 0 0 1 2.079 2.06m14.967 0a2.079 2.079 0 1 0 2.079-2.06 2.07 2.07 0 0 0-2.079 2.06" class="cls-25"/>
            <path id="Trazado_223" d="M20.5 36.193a7.307 7.307 0 0 0 10.008 0m-9.162-9.541A2.884 2.884 0 0 0 18.841 25a2.887 2.887 0 0 0-2.5 1.653m18.323-.011a2.72 2.72 0 0 0-5 0" class="cls-23"/>
            <path id="Trazado_224" d="M12.2 23.345l.03.089c0-.025.008-.051.015-.074l-.045-.015" class="cls-13"/>
            <path id="Trazado_225" d="M37.451 3.3c-3.17-4.189-20.735-4.187-23.9 0C.384 6.2 4.969 28.5 6.311 27.175a3.188 3.188 0 0 1 3.67-.534c2.214-3.3 3.045-3.3 3.045-8.239 1.834 1.089 21.867.634 22.91-7.106-.358 6.112 2.155 10.614 5.082 15.345a3.188 3.188 0 0 1 3.67.534C46.031 28.5 50.616 6.2 37.451 3.3" class="cls-12"/>
            <path id="Trazado_226" d="M13.549 8.358c3.168-4.186 20.733-4.189 23.9 0 6.281 1.384 8.516 7.183 9 12.73.539-6.47-.717-15.968-9-17.791-3.17-4.189-20.735-4.187-23.9 0-8.28 1.823-9.536 11.321-9 17.791.481-5.547 2.716-11.346 9-12.73" class="cls-13"/>
            <path id="Trazado_227" d="M37.451 3.3c-3.17-4.189-20.735-4.187-23.9 0C.384 6.2 4.969 28.5 6.311 27.175a3.188 3.188 0 0 1 3.67-.534c2.214-3.3 3.045-3.3 3.045-8.239 1.834 1.089 21.867.634 22.91-7.106-.358 6.112 2.155 10.614 5.082 15.345a3.188 3.188 0 0 1 3.67.534C46.031 28.5 50.616 6.2 37.451 3.3z" class="cls-23"/>
            <path id="Trazado_228" d="M19.679 48.063l-1.994 8.577L25.5 77.725h-4.158L14.9 73.294a1.641 1.641 0 0 1-.522-2.126l2.3-4.321-6.123-5.2a1.637 1.637 0 0 1-.491-1.791c1.553-4.439 2.659-10.34 9.607-11.792" class="cls-21"/>
            <path id="Trazado_229" d="M19.679 48.063l-1.994 8.577L25.5 77.725h-4.158L14.9 73.294a1.641 1.641 0 0 1-.522-2.126l2.3-4.321-6.123-5.2a1.637 1.637 0 0 1-.491-1.791c1.561-4.44 2.667-10.341 9.615-11.793z" class="cls-23"/>
            <path id="Trazado_230" d="M31.321 48.063l1.994 8.577L25.5 77.725h4.158l6.442-4.431a1.641 1.641 0 0 0 .522-2.126l-2.3-4.321 6.123-5.2a1.637 1.637 0 0 0 .491-1.791c-1.553-4.439-2.659-10.34-9.607-11.792" class="cls-21"/>
            <path id="Trazado_231" d="M31.321 48.063l1.994 8.577L25.5 77.725h4.158l6.442-4.431a1.641 1.641 0 0 0 .522-2.126l-2.3-4.321 6.123-5.2a1.637 1.637 0 0 0 .491-1.791c-1.561-4.44-2.667-10.341-9.615-11.793z" class="cls-23"/>
        </g>
        <g id="Grupo_210" transform="translate(49 31)">
            <path id="Trazado_232" fill="#ffe600" fill-rule="evenodd" d="M25.5 49.849A24.4 24.4 0 0 0 .554 74.092v5.361h49.892v-5.361A24.4 24.4 0 0 0 25.5 49.849"/>
            <path id="Trazado_233" fill="#fff48c" fill-rule="evenodd" d="M25.5 49.849A24.4 24.4 0 0 0 .554 74.092v5.342h.088A24.425 24.425 0 0 1 25.5 57.246a24.425 24.425 0 0 1 24.858 22.188h.088v-5.342A24.4 24.4 0 0 0 25.5 49.849"/>
            <path id="Trazado_234" d="M25.5 49.849A24.4 24.4 0 0 0 .554 74.092v5.361h49.892v-5.361A24.4 24.4 0 0 0 25.5 49.849z" class="cls-23"/>
            <path id="Línea_16" d="M0 7.397L0 0" class="cls-24" transform="translate(9.701 72.037)"/>
            <path id="Línea_17" d="M0 7.397L0 0" class="cls-24" transform="translate(41.299 72.037)"/>
            <path id="Trazado_235" fill="#00dfeb" fill-rule="evenodd" d="M25.5 60.546a9.9 9.9 0 0 0 9.714-8.9 24.627 24.627 0 0 0-9.714-1.8 24.627 24.627 0 0 0-9.714 1.8 9.9 9.9 0 0 0 9.714 8.9"/>
            <path id="Trazado_236" d="M25.5 60.546a9.9 9.9 0 0 0 9.714-8.9 24.627 24.627 0 0 0-9.714-1.8 24.627 24.627 0 0 0-9.714 1.8 9.9 9.9 0 0 0 9.714 8.9z" class="cls-23"/>
            <path id="Trazado_237" d="M19.679 42.466v8.668a5.959 5.959 0 0 0 5.821 5.922 5.959 5.959 0 0 0 5.821-5.923v-8.667z" class="cls-8"/>
            <path id="Trazado_238" d="M19.679 42.466v6.692a14.854 14.854 0 0 0 11.641 0v-6.692z" class="cls-9"/>
            <path id="Trazado_239" d="M19.679 42.466v8.668a5.959 5.959 0 0 0 5.821 5.922 5.959 5.959 0 0 0 5.821-5.923v-8.667z" class="cls-23"/>
            <path id="Trazado_240" fill="#efd6c9" fill-rule="evenodd" d="M42.13 26.849V22.74a16.632 16.632 0 0 0-33.261 0v4.11a3.288 3.288 0 1 0 0 6.575c.07 0 .135-.016.2-.021a16.637 16.637 0 0 0 32.852 0c.07 0 .135.021.2.021a3.288 3.288 0 1 0 0-6.575"/>
            <path id="Trazado_241" d="M42.13 26.849V22.74a16.632 16.632 0 0 0-33.261 0v4.11a3.288 3.288 0 1 0 0 6.575c.07 0 .135-.016.2-.021a16.637 16.637 0 0 0 32.852 0c.07 0 .135.021.2.021a3.288 3.288 0 1 0 0-6.575z" class="cls-23"/>
            <path id="Trazado_242" fill="#e7bea9" fill-rule="evenodd" d="M18.016 33.027a2.079 2.079 0 1 1-2.079-2.055 2.068 2.068 0 0 1 2.079 2.055m14.967 0a2.079 2.079 0 1 0 2.079-2.055 2.068 2.068 0 0 0-2.079 2.055"/>
            <path id="Trazado_243" d="M20.5 37.2a7.32 7.32 0 0 0 10.008 0m-9.162-9.516a2.881 2.881 0 0 0-2.5-1.649 2.884 2.884 0 0 0-2.5 1.649m18.323 0a2.723 2.723 0 0 0-5 0" class="cls-23"/>
            <path id="Trazado_244" d="M44.125 20.879a2 2 0 0 0-.835-.1c-.032-.035-.057-.074-.09-.107a2.955 2.955 0 1 0-1.68-5.661l-.16-.473a3.913 3.913 0 0 0 1.6-3.143 3.995 3.995 0 0 0-6.268-3.235l-.218-.217-.123-.061a3.872 3.872 0 0 0 .123-.927 3.986 3.986 0 0 0-7.041-2.517 3.964 3.964 0 0 0-3.933-3.4 3.964 3.964 0 0 0-3.935 3.4 3.986 3.986 0 0 0-7.041 2.517 3.872 3.872 0 0 0 .121.927l-.121.061-.22.217A3.992 3.992 0 0 0 8.04 11.4a3.916 3.916 0 0 0 1.6 3.143l-.16.473a2.991 2.991 0 0 0-1.939 0 2.949 2.949 0 0 0 .259 5.659c-.03.033-.058.072-.088.107a2 2 0 0 0-.835.1 1.964 1.964 0 0 0-.2 3.639c.65 2.178 3.853 2.137 3.853 4.8 0-13.853 6.529-16.4 10.976-14.385a10.189 10.189 0 0 0 3.994.664 10.189 10.189 0 0 0 3.991-.669c4.447-2.017 10.978.533 10.978 14.385 0-2.66 3.2-2.619 3.852-4.8a1.964 1.964 0 0 0-.2-3.639" class="cls-10"/>
            <path id="Trazado_245" d="M42.962 16.33a3.91 3.91 0 0 1-1.6 3.141l.16.473a3 3 0 0 1 1.941 0 3.027 3.027 0 0 1 .655.322 2.952 2.952 0 0 0-1.442-5.412 3.9 3.9 0 0 1 .288 1.47M6.885 20.272a2.931 2.931 0 0 1 .657-.322 2.991 2.991 0 0 1 1.939 0l.158-.473a3.893 3.893 0 0 1-1.314-4.611 2.946 2.946 0 0 0-1.44 5.412m5.145-7.888a3.992 3.992 0 0 1 2.275.71l.22-.217.121-.061a3.872 3.872 0 0 1-.121-.927 3.985 3.985 0 0 1 7.04-2.517 3.966 3.966 0 0 1 3.936-3.4 3.964 3.964 0 0 1 3.933 3.4 3.986 3.986 0 0 1 7.041 2.517 3.872 3.872 0 0 1-.123.927l.123.061.218.217a4.011 4.011 0 0 1 5.383.761 3.866 3.866 0 0 0 .885-2.458 3.995 3.995 0 0 0-6.268-3.235l-.218-.217-.123-.061a3.872 3.872 0 0 0 .123-.927 3.986 3.986 0 0 0-7.041-2.517 3.964 3.964 0 0 0-3.933-3.4 3.966 3.966 0 0 0-3.936 3.4 3.985 3.985 0 0 0-7.04 2.517 3.872 3.872 0 0 0 .121.927l-.121.061-.22.217A3.992 3.992 0 0 0 8.04 11.4a3.863 3.863 0 0 0 .881 2.458 4 4 0 0 1 3.108-1.471" class="cls-11"/>
            <path id="Trazado_246" d="M44.125 20.879a2 2 0 0 0-.835-.1c-.032-.035-.057-.074-.09-.107a2.955 2.955 0 1 0-1.68-5.661l-.16-.473a3.913 3.913 0 0 0 1.6-3.143 3.995 3.995 0 0 0-6.268-3.235l-.218-.217-.123-.061a3.872 3.872 0 0 0 .123-.927 3.986 3.986 0 0 0-7.041-2.517 3.964 3.964 0 0 0-3.933-3.4 3.964 3.964 0 0 0-3.935 3.4 3.986 3.986 0 0 0-7.041 2.517 3.872 3.872 0 0 0 .121.927l-.121.061-.22.217A3.992 3.992 0 0 0 8.04 11.4a3.916 3.916 0 0 0 1.6 3.143l-.16.473a2.991 2.991 0 0 0-1.939 0 2.949 2.949 0 0 0 .259 5.659c-.03.033-.058.072-.088.107a2 2 0 0 0-.835.1 1.964 1.964 0 0 0-.2 3.639c.65 2.178 3.853 2.137 3.853 4.8 0-13.853 6.529-16.4 10.976-14.385a10.189 10.189 0 0 0 3.994.664 10.189 10.189 0 0 0 3.991-.669c4.447-2.017 10.978.533 10.978 14.385 0-2.66 3.2-2.619 3.852-4.8a1.964 1.964 0 0 0-.2-3.639z" class="cls-23"/>
        </g>
    </g>
</svg>
